<?xml version="1.0" encoding="UTF-8"?>
<svg width="24px" height="24px" viewBox="0 0 24 24" version="1.1" xmlns="http://www.w3.org/2000/svg" xmlns:xlink="http://www.w3.org/1999/xlink">
    <!-- Generator: Sketch 50.2 (55047) - http://www.bohemiancoding.com/sketch -->
    <title>github-color</title>
    <desc>Created with Sketch.</desc>
    <defs></defs>
    <g id="🖥-Homepage---Desktop" stroke="none" stroke-width="1" fill="none" fill-rule="evenodd">
        <g id="Idle-LandingPage" transform="translate(-1068.000000, -5321.000000)">
            <g id="Footer" transform="translate(0.000000, 5204.000000)">
                <g id="Follow-us" transform="translate(732.000000, 80.000000)">
                    <g id="github-color" transform="translate(336.000000, 37.000000)">
                        <rect id="placer" x="0" y="0" width="24" height="24"></rect>
                        <path d="M0,11.999232 C0,8.686944 1.1718,5.859 3.515424,3.5154 C5.859,1.1718 8.686944,0 11.999256,0 C15.31152,0 18.139464,1.1718 20.483088,3.5154 C22.826664,5.859 23.998488,8.686944 23.998488,11.999232 C23.998488,15.31152 22.826688,18.139464 20.483088,20.483064 C18.139488,22.826664 15.311544,23.998488 11.999256,23.998488 C8.686944,23.998488 5.859,22.826688 3.515424,20.483064 C1.1718,18.139488 0,15.311496 0,11.999232 Z M1.312416,11.999232 C1.312416,14.936568 2.359224,17.452008 4.45284,19.545648 C6.546456,21.63924 9.06192,22.686072 11.999256,22.686072 C14.936568,22.686072 17.452032,21.639264 19.545648,19.545648 C21.639264,17.452032 22.686072,14.936568 22.686072,11.999232 C22.686072,9.06192 21.639288,6.546456 19.545648,4.45284 C17.452032,2.359224 14.936544,1.312416 11.999256,1.312416 C9.06192,1.312416 6.54648,2.359224 4.45284,4.45284 C2.359224,6.546456 1.312416,9.06192 1.312416,11.999232 Z M4.687224,14.577192 C4.624728,14.514696 4.624728,14.4522 4.687224,14.389704 C4.812192,14.264712 4.968456,14.21784 5.15592,14.249088 C5.343408,14.280336 5.452776,14.311584 5.484024,14.342832 C5.70276,14.436576 5.944944,14.647488 6.210528,14.975616 C6.476112,15.30372 6.687048,15.530256 6.843312,15.655248 C7.593264,16.280208 8.358816,16.32708 9.140016,15.795864 C9.202512,15.577128 9.30408,15.38964 9.444672,15.233376 C9.585264,15.077136 9.718104,14.967792 9.843096,14.905272 C9.968112,14.842776 10.186848,14.749032 10.499328,14.62404 C9.46812,14.530296 8.632248,14.350608 7.991664,14.085 C7.35108,13.819392 6.843288,13.483488 6.468312,13.077264 C5.968344,12.5148 5.663664,11.780472 5.554296,10.87428 C5.444904,9.968088 5.515224,9.140016 5.765232,8.390064 C5.95272,7.921344 6.218328,7.49952 6.562032,7.12452 C6.312048,6.34332 6.35892,5.452752 6.702648,4.452816 C7.702584,4.515312 8.608776,4.85904 9.421224,5.484 C10.983624,5.077776 12.60852,5.062152 14.295888,5.437128 C14.514624,5.280888 14.850552,5.0856 15.303624,4.851216 C15.75672,4.616856 16.327008,4.48404 17.014464,4.452792 C17.139456,4.79652 17.2254,5.202744 17.272272,5.671464 C17.319144,6.140184 17.29572,6.577656 17.201976,6.98388 C17.920656,7.733832 18.295632,8.733768 18.32688,9.983688 C18.32688,10.983624 18.15504,11.811696 17.811312,12.467904 C17.467584,13.124112 16.858248,13.670952 15.983304,14.1084 C15.389592,14.389656 14.608392,14.561496 13.639704,14.623992 C14.0772,14.842728 14.39748,15.069288 14.600592,15.303648 C14.803728,15.538008 14.93652,15.90516 14.99904,16.405128 L14.99904,17.881632 L15.045888,19.311216 C15.139632,19.46748 15.249024,19.600272 15.374016,19.709664 C15.499008,19.819032 15.608376,19.897152 15.70212,19.944024 C15.79584,19.990896 15.827112,20.061216 15.79584,20.15496 C15.764592,20.248704 15.6396,20.295576 15.420888,20.295576 C14.889648,20.295576 14.467824,20.108088 14.155344,19.733088 C14.0616,19.576848 14.014728,19.389384 14.014728,19.170624 L14.014728,16.920768 C14.014728,16.670784 13.952232,16.491096 13.82724,16.381728 C13.702248,16.272336 13.577256,16.20204 13.452264,16.170792 L13.452264,19.123728 C13.452264,19.654944 13.51476,19.998672 13.639752,20.154912 C13.764744,20.311152 13.842864,20.467416 13.874136,20.623632 C13.905384,20.65488 13.881936,20.678304 13.803816,20.693928 C13.72572,20.709528 13.592904,20.686128 13.405392,20.623632 C12.999168,20.529888 12.717936,20.318952 12.561696,19.990848 C12.405456,19.662744 12.327336,19.311192 12.327336,18.936216 L12.327336,16.030224 L11.718,16.030224 L11.718,18.936288 C11.718,19.311264 11.639856,19.67064 11.483616,20.014344 C11.264904,20.45184 10.858656,20.686176 10.264968,20.717424 C10.171224,20.686176 10.124352,20.654928 10.124352,20.623704 C10.1556,20.592432 10.249344,20.436216 10.405584,20.154984 C10.436832,20.092488 10.475904,19.967496 10.522776,19.780008 C10.569672,19.59252 10.593096,19.373784 10.593096,19.1238 L10.593096,16.17084 C10.468104,16.202088 10.350912,16.272384 10.241544,16.381776 C10.132176,16.491168 10.07748,16.670832 10.07748,16.920816 L10.07748,19.170672 C10.07748,19.389384 10.030608,19.576896 9.936864,19.733136 C9.655632,20.108112 9.233784,20.295624 8.671344,20.295624 C8.452608,20.295624 8.327616,20.248752 8.296368,20.155008 C8.265096,20.092512 8.27292,20.037816 8.319816,19.990944 C8.366712,19.944072 8.437008,19.889376 8.530752,19.82688 C8.624496,19.764384 8.686992,19.717488 8.71824,19.686264 C8.843232,19.59252 8.936952,19.467528 8.999472,19.311288 C9.093216,19.186296 9.11664,18.858192 9.069768,18.326976 C9.022896,17.79576 9.015072,17.452032 9.04632,17.295792 C8.233848,17.577024 7.4058,17.436384 6.56208,16.873944 C6.312096,16.62396 6.062112,16.264584 5.812128,15.795888 C5.62464,15.452136 5.249664,15.045912 4.687224,14.577192 Z" id="Shape" fill="#14110D" fill-rule="nonzero"></path>
                    </g>
                </g>
            </g>
        </g>
    </g>
</svg>