<?xml version="1.0" encoding="UTF-8"?>
<svg width="118px" height="28px" viewBox="0 0 118 28" version="1.1" xmlns="http://www.w3.org/2000/svg" xmlns:xlink="http://www.w3.org/1999/xlink">
    <!-- Generator: Sketch 50.2 (55047) - http://www.bohemiancoding.com/sketch -->
    <title>logo--teespring</title>
    <desc>Created with Sketch.</desc>
    <defs></defs>
    <g id="🖥-Homepage---Desktop" stroke="none" stroke-width="1" fill="none" fill-rule="evenodd" opacity="0.200000003">
        <g id="Idle-LandingPage" transform="translate(-485.000000, -4462.000000)" fill="#FFFFFF" fill-rule="nonzero">
            <g id="Features" transform="translate(0.000000, 3310.000000)">
                <g id="logo" transform="translate(317.000000, 1152.000000)">
                    <g id="logo--teespring" transform="translate(168.600000, 0.000000)">
                        <path d="M8.82717561,3.09260833 L2.18296251,6.09005947 C2.82595087,7.51741716 3.39749609,8.80203908 4.04048445,10.086661 C5.39790433,9.51571793 6.68388106,8.94477485 8.1127441,8.30246389 C8.89861877,11.5853866 9.68449343,14.7969414 10.4703681,18.0798641 C11.0419133,17.8657604 11.5420154,17.7230246 12.0421174,17.5802889 C14.185412,16.9379779 16.3287065,16.6525064 18.5434442,17.2234494 C19.829421,17.508921 20.8296251,18.1512319 21.1868409,19.5785896 C21.3297272,20.3636364 21.1868409,21.1486831 20.7581819,21.7909941 C21.4726135,23.7892948 20.6152956,25.502124 18.6863305,26.5726423 C17.3289107,27.357689 14.8284004,28 13.4709805,28 L13.4709805,26.3585387 C15.3999456,26.0016992 17.4003538,25.7875956 18.8292168,24.28887 C19.0435463,24.0747664 19.1149895,23.7179269 19.2578758,23.5038233 C17.971899,23.9320306 16.6859223,24.4316058 15.3285024,24.6457094 C14.1139688,24.8598131 12.8994353,24.7884452 11.6849017,24.7170773 C10.9704702,24.6457094 10.3274818,24.2175021 10.1131523,23.4324554 C9.97026604,22.5760408 10.3274818,21.9337298 10.9704702,21.4341546 C11.9706743,20.7204758 13.1137647,20.4350042 14.3282983,20.2209006 C15.7571613,20.0067969 17.1145812,20.0067969 18.5434442,20.4350042 C18.3291148,21.1486831 17.3289107,21.7909941 16.4001497,21.7909941 C15.1856161,21.7909941 13.9710825,21.9337298 12.756549,22.3619371 C12.4707763,22.5046729 12.1135606,22.6474087 11.7563448,22.8615123 C12.6851058,23.1469839 13.3995373,23.075616 14.185412,23.0042481 C15.5428319,22.8615123 16.8288086,22.5046729 17.971899,21.7909941 C18.4005579,21.5768904 18.7577737,21.220051 19.0435463,20.8632116 C19.6150915,20.1495327 19.4007621,19.4358539 18.6148874,19.0790144 C17.6861264,18.6508071 16.6144791,18.5794393 15.614275,18.6508071 C13.5424236,18.722175 11.6134585,19.364486 9.75593659,20.3636364 C9.61305028,20.4350042 9.47016398,20.5063721 9.25583452,20.57774 C8.46995986,17.2234494 7.68408519,13.9405268 6.82676737,10.5148683 C5.61223379,11.1571793 4.39770021,11.7281223 3.18316663,12.3704333 C2.18296251,10.1580289 1.11131523,7.87425658 0.111111111,5.59048428 C3.11172348,3.6635514 6.32666531,2.23619371 9.75593659,1.23704333 C10.1131523,2.37892948 10.7561407,3.30671198 11.827788,3.80628717 C12.5422195,4.09175871 13.256651,4.23449448 14.0425257,4.02039082 C15.7571613,3.59218352 16.6859223,2.3075616 16.8288086,0.0951571793 C20.6152956,-0.190314359 24.4017827,0.166525064 28.1168266,1.16567545 L26.6165204,8.44519966 C25.1162142,8.23109601 23.6873512,8.08836024 22.1156018,7.87425658 C21.9727155,10.9430756 21.8298292,13.9405268 21.6869429,16.9379779 C21.1868409,16.5811385 20.6867388,16.2242991 20.1151936,15.7960918 C20.2580799,12.6559048 20.4009662,9.44435004 20.5438525,6.16142736 C22.187045,6.30416313 23.7587943,6.37553101 25.3305436,6.51826678 C25.6163163,5.16227698 25.9020889,3.73491929 26.1878615,2.3075616 C23.5444649,1.73661852 20.9725114,1.52251487 18.3291148,1.52251487 C17.6861264,3.73491929 16.4001497,5.16227698 14.1139688,5.59048428 C12.0421174,5.9473237 10.2560386,5.09090909 8.82717561,3.09260833 L8.82717561,3.09260833 Z M114.56304,12.0135939 L114.56304,10.728972 L116.777778,10.728972 L116.777778,20.2922685 C116.777778,23.1469839 115.420358,24.7170773 112.562632,25.0739167 C110.776553,25.2880204 108.990474,25.0739167 107.490168,23.8606627 L107.204395,23.5751912 C107.561611,23.075616 107.847384,22.5046729 108.276043,21.9337298 C109.419133,23.075616 110.70511,23.4324554 112.205416,23.2183517 C113.705722,23.0042481 114.491597,22.0050977 114.56304,20.57774 L114.56304,19.4358539 C114.420154,19.5072218 114.348711,19.5785896 114.348711,19.6499575 C112.205416,22.0764656 107.775941,21.2914189 106.990066,17.4375531 C106.63285,15.8674596 106.704293,14.3687341 107.418725,12.9413764 C108.704702,10.3007647 112.133973,9.6584537 114.277267,11.7281223 C114.205824,11.7281223 114.348711,11.7994902 114.56304,12.0135939 L114.56304,12.0135939 Z M114.56304,15.7247239 L114.56304,14.1546304 C114.56304,13.9405268 114.491597,13.6550552 114.348711,13.5123195 C113.491393,12.584537 112.491189,12.2276975 111.276655,12.5131691 C110.133565,12.7986406 109.490576,13.5836873 109.276247,14.7255735 C109.204804,15.1537808 109.133361,15.5819881 109.204804,16.0815633 C109.276247,17.2234494 109.704906,18.2225998 110.847996,18.722175 C111.991087,19.2217502 113.062734,19.0076466 113.991495,18.2939677 C114.420154,18.0084962 114.705926,17.5802889 114.634483,17.0093458 C114.491597,16.5811385 114.56304,16.1529312 114.56304,15.7247239 L114.56304,15.7247239 Z M72.7687964,19.6499575 L72.7687964,24.7884452 L70.5540587,24.7884452 L70.5540587,10.6576041 L72.7687964,10.6576041 C72.7687964,11.0144435 72.7687964,11.3712829 72.8402395,11.8708581 C73.1260121,11.5853866 73.3403416,11.3712829 73.6261142,11.2285472 C75.912295,9.51571793 79.19868,10.5148683 80.1988841,13.2982158 C80.8418725,15.011045 80.8418725,16.7238743 80.127441,18.4367035 C78.9843505,21.4341546 75.3407498,22.1478335 73.054569,19.9354291 C73.054569,19.8640612 72.9831258,19.8640612 72.7687964,19.6499575 L72.7687964,19.6499575 Z M78.269919,15.9388275 C78.269919,15.5819881 78.269919,15.3678845 78.1984759,15.1537808 C77.9841464,13.9405268 77.4840444,13.0127443 76.2695108,12.6559048 C75.0549772,12.2276975 73.9833299,12.584537 73.1260121,13.4409516 C72.9116827,13.6550552 72.7687964,13.9405268 72.7687964,14.2259983 C72.6973532,15.2965166 72.7687964,16.4384027 72.7687964,17.508921 C72.7687964,17.7230246 72.8402395,18.0084962 73.054569,18.2225998 C73.8404436,19.0790144 74.9120909,19.4358539 76.0551813,19.2217502 C77.1982718,18.9362787 77.8412601,18.1512319 78.1270327,17.0093458 C78.1984759,16.5811385 78.269919,16.2242991 78.269919,15.9388275 L78.269919,15.9388275 Z M44.7630809,18.2939677 C45.1202967,18.7935429 45.4060693,19.2217502 45.763285,19.7213254 C45.6918419,19.7926933 45.6203987,19.8640612 45.6203987,19.9354291 C43.6199905,21.7196262 39.9049466,21.6482583 37.9045383,19.8640612 C36.0470164,18.2225998 35.6898006,14.9396771 37.1186637,12.7272727 C38.5475267,10.5862362 41.3338096,9.80118946 43.6199905,10.8717077 C45.4775124,11.7281223 46.2633871,13.3695837 46.4777165,15.3678845 C46.5491597,15.7247239 46.4777165,16.0815633 46.4777165,16.5811385 L38.6189699,16.5811385 C38.7618562,17.7230246 39.2619582,18.5080714 40.1907192,18.9362787 C41.7624685,19.7926933 43.2627747,19.2931181 44.7630809,18.2939677 L44.7630809,18.2939677 Z M44.1915357,14.9396771 C44.1915357,13.4409516 42.9770021,12.2990654 41.4052528,12.2990654 C39.9049466,12.2990654 38.6189699,13.4409516 38.5475267,14.9396771 L44.1915357,14.9396771 Z M58.2658366,16.5811385 L50.4070899,16.5811385 C50.478533,17.6516568 50.9786351,18.3653356 51.8359529,18.8649108 C52.9076002,19.5072218 54.6222358,19.7213254 56.5512009,18.2225998 C56.9084167,18.6508071 57.1941893,19.1503823 57.6228482,19.7213254 C57.1227461,20.0067969 56.6226441,20.3636364 56.122542,20.57774 C54.7651221,21.1486831 53.4077023,21.2914189 51.9788392,21.0059473 C48.9782268,20.2922685 47.3350344,17.2234494 48.2637953,14.0832625 C49.1211132,11.2285472 52.1931687,9.6584537 55.0508947,10.728972 C57.1941893,11.5140187 58.0515071,13.2982158 58.2658366,15.4392523 C58.3372797,15.7960918 58.2658366,16.1529312 58.2658366,16.5811385 L58.2658366,16.5811385 Z M50.4070899,14.9396771 L56.0510989,14.9396771 C56.0510989,13.5123195 54.9794516,12.3704333 53.4077023,12.2990654 C51.8359529,12.1563297 50.6214193,13.2268479 50.4070899,14.9396771 L50.4070899,14.9396771 Z M97.55957,12.0135939 C98.4168878,11.2285472 99.2027625,10.6576041 100.202967,10.5148683 C100.774512,10.4435004 101.4175,10.3721325 102.060489,10.4435004 C103.560795,10.6576041 104.489556,11.7281223 104.489556,13.3695837 C104.560999,15.7960918 104.489556,18.2225998 104.489556,20.6491079 C104.489556,20.7204758 104.489556,20.7204758 104.418113,20.8632116 L102.203375,20.8632116 L102.203375,14.5828377 C102.203375,12.9413764 101.346057,12.1563297 99.6314214,12.4418012 C98.8455467,12.584537 98.2025583,12.9413764 97.7738994,13.5123195 C97.6310131,13.6550552 97.55957,13.9405268 97.55957,14.1546304 L97.55957,20.7918437 L95.3448323,20.7918437 L95.3448323,10.5862362 L97.55957,10.5862362 L97.55957,12.0135939 L97.55957,12.0135939 Z M67.9821052,11.942226 C67.6963326,12.4418012 67.41056,12.9413764 67.0533442,13.5123195 C66.1245832,12.6559048 65.052936,12.2276975 63.8384024,12.2990654 C63.4097435,12.2990654 62.9096414,12.5131691 62.4809825,12.7986406 C61.8379941,13.2268479 61.9808805,13.9405268 62.6238688,14.2259983 C63.195414,14.440102 63.7669592,14.5828377 64.3385045,14.7255735 C65.1243791,14.9396771 65.9102538,15.1537808 66.6961285,15.4392523 C68.7679799,16.4384027 68.839423,19.2217502 66.9819011,20.4350042 C65.052936,21.6482583 61.4093352,21.2914189 59.7661428,19.7213254 C59.6946996,19.6499575 59.6946996,19.6499575 59.6232564,19.5072218 C59.9090291,19.0076466 60.2662448,18.5080714 60.4805743,18.0798641 C61.4807784,18.5080714 62.3380962,18.9362787 63.2668572,19.2217502 C63.7669592,19.364486 64.4099476,19.2931181 64.9814928,19.2217502 C65.6959243,19.0790144 66.0531401,18.6508071 66.0531401,18.0798641 C66.0531401,17.4375531 65.553038,17.1520816 65.052936,17.0093458 C64.3385045,16.7952421 63.5526298,16.6525064 62.7667551,16.4384027 L61.4807784,16.0101954 C59.2660407,15.0824129 59.4803701,12.3704333 60.9806763,11.2285472 C62.8381983,9.94392523 66.3389127,10.2293968 67.9821052,11.942226 Z M30.4744506,12.6559048 L28.8312581,12.6559048 L28.8312581,10.6576041 L30.4744506,10.6576041 L30.4744506,7.87425658 L32.7606314,7.87425658 L32.7606314,10.5862362 L34.8324828,10.5862362 L34.8324828,12.584537 L32.8320746,12.584537 C32.8320746,12.7986406 32.7606314,12.9413764 32.7606314,13.0841121 L32.7606314,18.1512319 C32.9035177,19.0076466 33.4036198,19.364486 34.2609376,19.0790144 C34.4038239,19.0076466 34.5467102,18.9362787 34.7610397,18.8649108 C34.903926,19.4358539 35.1182554,19.9354291 35.2611417,20.5063721 C34.2609376,21.2914189 33.1178472,21.2914189 31.9747568,21.0059473 C30.9745526,20.7204758 30.5458937,19.9354291 30.4744506,18.9362787 C30.4030074,17.1520816 30.4744506,15.2965166 30.4030074,13.5123195 C30.4744506,13.2982158 30.4744506,13.0127443 30.4744506,12.6559048 L30.4744506,12.6559048 Z M82.8422807,10.728972 L85.0570184,10.728972 L85.0570184,12.1563297 C86.0572226,11.1571793 87.0574267,10.5148683 88.3434034,10.4435004 L88.3434034,12.6559048 C87.0574267,12.5131691 85.9143363,12.9413764 85.0570184,14.0118946 L85.0570184,20.9345794 L82.8422807,20.9345794 L82.8422807,10.728972 L82.8422807,10.728972 Z M90.2009254,10.728972 L92.4156631,10.728972 L92.4156631,20.9345794 L90.2009254,20.9345794 L90.2009254,10.728972 L90.2009254,10.728972 Z M92.7014357,8.01699235 C92.7014357,8.80203908 92.0584473,9.44435004 91.2725726,9.44435004 C90.5581411,9.44435004 89.9151528,8.80203908 89.9151528,8.08836024 C89.9151528,7.30331351 90.5581411,6.66100255 91.3440158,6.66100255 C92.0584473,6.66100255 92.7014357,7.30331351 92.7014357,8.01699235 Z" id="teespring"></path>
                    </g>
                </g>
            </g>
        </g>
    </g>
</svg>