<?xml version="1.0" encoding="UTF-8"?>
<svg width="114px" height="24px" viewBox="0 0 114 24" version="1.1" xmlns="http://www.w3.org/2000/svg" xmlns:xlink="http://www.w3.org/1999/xlink">
    <!-- Generator: Sketch 50.2 (55047) - http://www.bohemiancoding.com/sketch -->
    <title>logo--zendesk</title>
    <desc>Created with Sketch.</desc>
    <defs></defs>
    <g id="🖥-Homepage---Desktop" stroke="none" stroke-width="1" fill="none" fill-rule="evenodd" opacity="0.200000003">
        <g id="Idle-LandingPage" transform="translate(-653.000000, -4464.000000)" fill="#FFFFFF" fill-rule="nonzero">
            <g id="Features" transform="translate(0.000000, 3310.000000)">
                <g id="logo" transform="translate(317.000000, 1152.000000)">
                    <g id="logo--zendesk" transform="translate(336.200000, 2.000000)">
                        <path d="M12.7671911,11.0112994 L4.88063326,20.4039548 L11.7813714,20.4039548 C12.4714452,20.4039548 13.161519,20.9971751 13.161519,21.7881356 C13.161519,22.480226 12.5700272,23.1723164 11.7813714,23.1723164 L1.82459207,23.1723164 C1.13451826,23.1723164 0.444444444,22.480226 0.444444444,21.7881356 C0.444444444,21.4915254 0.543026418,21.0960452 0.838772339,20.799435 L8.72533023,11.4067797 L1.82459207,11.4067797 C1.13451826,11.4067797 0.444444444,10.8135593 0.444444444,10.0225989 C0.444444444,9.33050847 1.03593629,8.63841808 1.82459207,8.63841808 L11.6827894,8.63841808 C12.6686092,8.63841808 13.260101,9.33050847 13.260101,10.1214689 C13.0629371,10.5169492 12.9643551,10.8135593 12.7671911,11.0112994 Z M28.6388889,16.8446328 L18.2877817,16.8446328 C18.4849456,19.1186441 20.2594211,20.799435 22.6253885,20.799435 C24.3012821,20.799435 25.7800117,20.1073446 26.9629953,18.920904 C27.1601593,18.7231638 27.4559052,18.6242938 27.7516511,18.6242938 C28.145979,18.6242938 28.5403069,18.8220339 28.8360528,19.1186441 C29.0332168,19.3163842 29.1317988,19.6129944 29.1317988,19.9096045 C29.1317988,20.3050847 28.9346348,20.700565 28.6388889,20.9971751 C27.2587413,22.480226 24.8927739,23.4689266 22.5268065,23.4689266 C18.2877817,23.4689266 14.8374126,20.0084746 14.8374126,15.7570621 C14.8374126,11.5056497 18.1891997,8.04519774 22.4282246,8.04519774 C26.6672494,8.04519774 29.8218726,11.3079096 29.8218726,15.6581921 C29.8218726,16.4491525 29.2303807,16.8446328 28.6388889,16.8446328 L28.6388889,16.8446328 Z M22.4282246,10.9124294 C20.1608392,10.9124294 18.6821096,12.3954802 18.2877817,14.5706215 L26.5686674,14.5706215 C26.2729215,12.4943503 24.6956099,10.9124294 22.4282246,10.9124294 Z M62.7482517,23.4689266 C61.861014,23.4689266 61.0723582,22.7768362 61.0723582,21.7881356 L61.0723582,20.9971751 C60.1851204,22.579096 58.4106449,23.5677966 56.2418415,23.5677966 C52.0028166,23.5677966 48.9467754,20.3050847 48.9467754,15.8559322 C48.9467754,11.5056497 51.9042347,8.1440678 56.2418415,8.1440678 C58.4106449,8.1440678 60.1851204,9.23163842 61.0723582,10.7146893 L61.0723582,2.01412429 C61.0723582,1.12429379 61.861014,0.43220339 62.7482517,0.43220339 C63.6354895,0.43220339 64.4241453,1.12429379 64.4241453,2.01412429 L64.4241453,21.6892655 C64.4241453,22.6779661 63.7340715,23.4689266 62.7482517,23.4689266 L62.7482517,23.4689266 Z M56.7347514,11.1101695 C54.0730381,11.1101695 52.3971445,13.2853107 52.3971445,15.8559322 C52.3971445,18.4265537 54.0730381,20.6016949 56.7347514,20.6016949 C59.3964646,20.6016949 61.0723582,18.5254237 61.0723582,15.8559322 C61.1709402,13.1864407 59.3964646,11.1101695 56.7347514,11.1101695 Z M81.0844988,16.8446328 L70.7333916,16.8446328 C70.9305556,19.1186441 72.7050311,20.799435 75.1695804,20.799435 C76.845474,20.799435 78.3242036,20.1073446 79.5071873,18.920904 C79.7043512,18.7231638 80.0000971,18.6242938 80.295843,18.6242938 C80.6901709,18.6242938 81.0844988,18.8220339 81.3802448,19.1186441 C81.5774087,19.3163842 81.6759907,19.6129944 81.6759907,19.9096045 C81.6759907,20.3050847 81.4788267,20.700565 81.1830808,20.9971751 C79.8029332,22.480226 77.4369658,23.4689266 75.0709984,23.4689266 C70.8319736,23.4689266 67.3816045,20.0084746 67.3816045,15.7570621 C67.3816045,11.5056497 70.7333916,8.04519774 74.9724165,8.04519774 C79.2114413,8.04519774 82.3660645,11.3079096 82.3660645,15.6581921 C82.2674825,16.4491525 81.6759907,16.8446328 81.0844988,16.8446328 L81.0844988,16.8446328 Z M74.9724165,10.9124294 C72.7050311,10.9124294 71.2263015,12.3954802 70.8319736,14.5706215 L79.1128594,14.5706215 C78.7185315,12.4943503 77.1412199,10.9124294 74.9724165,10.9124294 Z M90.4497863,23.5677966 C88.7738928,23.5677966 86.7036713,23.0734463 85.1263598,22.0847458 C84.6334499,21.7881356 84.337704,21.2937853 84.337704,20.799435 C84.337704,20.6016949 84.4362859,20.5028249 84.4362859,20.3050847 C84.6334499,19.8107345 85.0277778,19.5141243 85.5206876,19.5141243 C85.7178516,19.5141243 86.0135975,19.6129944 86.2107615,19.7118644 C87.4923271,20.4039548 88.8724747,20.8983051 90.3512044,20.8983051 C92.0270979,20.8983051 93.8015734,20.4039548 93.8015734,19.1186441 C93.8015734,18.1299435 92.9143357,17.7344633 89.4639666,16.5480226 C86.7036713,15.559322 85.2249417,14.2740113 85.2249417,12.1977401 C85.2249417,9.7259887 87.6894911,8.1440678 90.9426962,8.1440678 C93.1114996,8.1440678 94.5902292,8.63841808 95.9703768,9.33050847 C96.5618687,9.62711864 96.8576146,10.0225989 96.8576146,10.6158192 C96.8576146,10.8135593 96.8576146,10.9124294 96.7590326,11.1101695 C96.5618687,11.6045198 96.0689588,12 95.477467,12 C95.280303,12 95.1817211,12 94.9845571,11.9011299 C93.8015734,11.3079096 92.5200078,11.0112994 91.1398601,11.0112994 C89.3653846,11.0112994 88.2809829,11.4067797 88.2809829,12.4943503 C88.2809829,13.5819209 89.1682207,13.779661 91.63277,14.5706215 C94.6888112,15.559322 96.8576146,16.6468927 96.8576146,19.1186441 C96.7590326,21.4915254 94.4916472,23.5677966 90.4497863,23.5677966 L90.4497863,23.5677966 Z M111.743493,23.3700565 C111.349165,23.3700565 110.856255,23.1723164 110.560509,22.8757062 L105.039918,16.5480226 L103.364025,17.8333333 L103.364025,21.6892655 C103.364025,22.579096 102.673951,23.3700565 101.786713,23.3700565 C100.899476,23.3700565 100.209402,22.6779661 100.209402,21.6892655 L100.209402,2.01412429 C100.209402,1.12429379 100.899476,0.333333333 101.786713,0.333333333 C102.673951,0.333333333 103.364025,1.12429379 103.364025,2.01412429 L103.364025,13.9774011 L110.363345,8.53954802 C110.659091,8.34180791 110.954837,8.24293785 111.250583,8.24293785 C111.743493,8.24293785 112.137821,8.44067797 112.433566,8.83615819 C112.63073,9.13276836 112.827894,9.42937853 112.827894,9.82485876 C112.827894,10.319209 112.63073,10.7146893 112.236402,11.0112994 L107.504468,14.7683616 L112.827894,20.8983051 C113.025058,21.1949153 113.222222,21.4915254 113.222222,21.8870056 C113.222222,22.7768362 112.532148,23.3700565 111.743493,23.3700565 L111.743493,23.3700565 Z M39.581488,8.1440678 C35.736791,8.1440678 32.6807498,11.1101695 32.6807498,15.0649718 L32.6807498,21.9858757 C32.6807498,22.8757062 33.3708236,23.6666667 34.3566434,23.6666667 C35.2438811,23.6666667 36.0325369,22.9745763 36.0325369,21.9858757 L36.0325369,15.1638418 C36.0325369,12.8898305 37.3141026,11.1101695 39.6800699,11.1101695 C42.0460373,11.1101695 43.327603,12.8898305 43.327603,15.1638418 L43.327603,21.9858757 C43.327603,22.8757062 44.1162587,23.6666667 45.0034965,23.6666667 C45.8907343,23.6666667 46.6793901,22.9745763 46.6793901,21.9858757 L46.6793901,15.0649718 C46.4822261,11.1101695 43.327603,8.1440678 39.581488,8.1440678 L39.581488,8.1440678 Z" id="zendesk"></path>
                    </g>
                </g>
            </g>
        </g>
    </g>
</svg>