<?xml version="1.0" encoding="UTF-8"?>
<svg width="148px" height="26px" viewBox="0 0 148 26" version="1.1" xmlns="http://www.w3.org/2000/svg" xmlns:xlink="http://www.w3.org/1999/xlink">
    <!-- Generator: Sketch 50.2 (55047) - http://www.bohemiancoding.com/sketch -->
    <title>logo--compose</title>
    <desc>Created with Sketch.</desc>
    <defs></defs>
    <g id="🖥-Homepage---Desktop" stroke="none" stroke-width="1" fill="none" fill-rule="evenodd" opacity="0.200000003">
        <g id="Idle-LandingPage" transform="translate(-817.000000, -4463.000000)" fill="#FFFFFF" fill-rule="nonzero">
            <g id="Features" transform="translate(0.000000, 3310.000000)">
                <g id="logo" transform="translate(317.000000, 1152.000000)">
                    <g id="logo--compose" transform="translate(500.800000, 1.000000)">
                        <path d="M26.9818918,0.555555556 C33.0520983,4.03030303 39.0413687,7.50505051 45.0306391,10.979798 L45.0306391,20.2727273 C42.0360039,21.969697 39.0413687,23.6666667 36.0467335,25.4444444 C33.0520983,23.7474747 30.1383992,22.0505051 27.143764,20.2727273 C24.1491288,21.969697 21.1544936,23.6666667 18.0789223,25.4444444 L0.111111111,15.020202 L0.111111111,5.72727273 C3.10574631,4.03030303 6.10038151,2.33333333 9.0950167,0.555555556 C12.0896519,2.25252525 15.003351,3.94949495 17.9979862,5.72727273 C20.9116853,4.03030303 23.9063205,2.33333333 26.9818918,0.555555556 L26.9818918,0.555555556 Z M9.01408062,10.8989899 C11.3612271,9.52525253 13.6274375,8.23232323 15.974584,6.85858586 C13.6274375,5.48484848 11.3612271,4.19191919 9.01408062,2.8989899 C6.7478702,4.19191919 4.40072369,5.48484848 2.05357719,6.85858586 C4.48165978,8.23232323 6.7478702,9.52525253 9.01408062,10.8989899 Z M35.9657974,16.1515152 C37.7463913,15.2626263 42.5216204,12.4343434 42.7644287,12.1111111 L35.9657974,8.23232323 C33.699587,9.52525253 31.3524405,10.8181818 29.005294,12.1919192 C31.4333766,13.4848485 33.699587,14.7777778 35.9657974,16.1515152 Z M33.8614591,6.93939394 C31.5143126,5.56565657 29.1671661,4.27272727 26.9009557,2.97979798 C24.5538092,4.27272727 22.2875988,5.56565657 19.9404523,6.93939394 C22.2875988,8.31313131 24.5538092,9.60606061 26.9009557,10.979798 C29.2481022,9.60606061 31.5143126,8.31313131 33.8614591,6.93939394 Z M18.0789223,16.1515152 C20.3451327,14.8585859 22.6113431,13.4848485 25.0394257,12.1111111 C22.6922792,10.7373737 20.4260688,9.44444444 18.0789223,8.15151515 C15.8127119,9.44444444 13.5465015,10.7373737 11.1184189,12.1111111 C13.4655654,13.4848485 15.7317758,14.7777778 18.0789223,16.1515152 Z M96.9106705,16.5555556 C97.5581592,16.6363636 97.9628396,16.6363636 98.4484561,16.6363636 L98.4484561,18.8181818 L92.7829301,18.8181818 L92.7829301,16.7171717 C93.2685466,16.6363636 93.673227,16.6363636 94.0779074,16.5555556 C94.0779074,14.8585859 94.1588435,13.1616162 94.0779074,11.5454545 C94.0779074,10.7373737 93.3494827,10.3333333 92.4591857,10.4141414 C91.5688888,10.4949495 90.840464,10.979798 90.1120392,11.6262626 L90.1120392,16.5555556 C90.5167196,16.6363636 90.9214001,16.6363636 91.4879527,16.7171717 L91.4879527,18.8989899 L85.9842988,18.8989899 L85.9842988,16.7171717 C86.4699153,16.6363636 86.8745957,16.6363636 87.3602123,16.5555556 C87.3602123,14.9393939 87.4411484,13.2424242 87.3602123,11.6262626 C87.2792762,10.5757576 86.6317875,10.2525253 85.5796184,10.4141414 C84.8511936,10.5757576 84.284641,10.8181818 83.4752801,11.5454545 L83.4752801,16.5555556 C83.9608966,16.6363636 84.284641,16.6363636 84.7702575,16.7171717 L84.7702575,18.8989899 L79.1856675,18.8989899 L79.1856675,16.7979798 C79.590348,16.7171717 80.0759645,16.7171717 80.6425171,16.6363636 L80.6425171,10.5757576 C80.1569006,10.4949495 79.6712841,10.4949495 79.1856675,10.4141414 L79.1856675,8.23232323 L83.3134079,8.23232323 C83.3134079,8.63636364 83.394344,9.12121212 83.4752801,9.68686869 C84.4465132,8.7979798 85.4177462,8.07070707 86.7127236,7.98989899 C88.088637,7.90909091 89.1408062,8.39393939 89.8692309,9.60606061 C90.1120392,9.44444444 90.3548475,9.28282828 90.5976557,9.04040404 C91.4879527,8.39393939 92.3782496,7.90909091 93.5113548,7.90909091 C95.6966292,7.90909091 96.9106705,9.12121212 96.9916065,11.3030303 L96.9916065,15.5050505 C96.9106705,15.8282828 96.9106705,16.1515152 96.9106705,16.5555556 L96.9106705,16.5555556 Z M103.142749,18.1717172 L103.142749,21.3232323 C103.709302,21.4040404 104.275854,21.4040404 104.842407,21.4848485 L104.842407,23.5858586 L98.8531365,23.5858586 L98.8531365,21.4848485 C99.257817,21.4040404 99.7434335,21.4040404 100.148114,21.3232323 C100.390922,20.5959596 100.471858,11.5454545 100.22905,10.4141414 C99.8243696,10.3333333 99.3387531,10.3333333 98.8531365,10.2525253 L98.8531365,8.07070707 L102.899941,8.07070707 C102.899941,8.15151515 102.980877,8.31313131 102.980877,8.47474747 C102.980877,8.63636364 103.061813,8.7979798 103.061813,9.04040404 C103.223685,8.87878788 103.385557,8.87878788 103.54743,8.71717172 C105.489896,7.1010101 109.051083,7.66666667 110.346061,10.3333333 C111.479166,12.5959596 111.39823,14.8585859 109.860444,16.959596 C108.403595,18.979798 105.975512,19.5454545 103.790238,18.4141414 C103.709302,18.4141414 103.466493,18.3333333 103.142749,18.1717172 L103.142749,18.1717172 Z M103.142749,15.8282828 C104.923343,17.040404 106.703937,16.959596 107.67517,15.6666667 C108.727339,14.2929293 108.565467,11.9494949 107.351426,10.8989899 C106.299256,9.92929293 104.275854,10.0909091 103.142749,11.4646465 L103.142749,15.8282828 Z M61.7034729,5.72727273 C59.5991346,4.35353535 56.3616912,4.91919192 54.7429694,6.93939394 C52.8814395,9.2020202 53.0433116,13 55.1476499,15.020202 C57.4138603,17.2020202 60.7322398,16.959596 63.726875,14.4545455 C64.3743637,15.020202 65.0218524,15.6666667 65.6693411,16.3131313 C64.2934276,17.8484848 62.6747059,18.7373737 60.8131759,18.979798 C57.4947964,19.4646465 54.5001612,18.8989899 52.3148868,16.1515152 C50.2105486,13.4848485 49.9677403,10.4141414 51.1817816,7.34343434 C52.3958229,4.35353535 54.8239055,2.73737374 58.061349,2.41414141 C59.5991346,2.25252525 61.1369203,2.41414141 62.5937698,3.06060606 C63.4840668,3.46464646 64.3743637,3.94949495 64.7790442,4.83838384 C65.0218524,5.4040404 65.2646607,6.05050505 65.1837246,6.61616162 C65.1027885,7.82828283 64.2934276,8.39393939 63.0793863,8.23232323 C62.0272172,8.07070707 61.3797285,7.26262626 61.5416007,6.05050505 C61.7034729,5.96969697 61.7034729,5.88888889 61.7034729,5.72727273 L61.7034729,5.72727273 Z M146.200747,14.3737374 L138.511819,14.3737374 C138.754627,15.5858586 139.402116,16.1515152 140.373349,16.4747475 C141.668326,16.8787879 143.04424,16.7171717 144.339217,16.3131313 C144.824834,16.1515152 145.31045,15.9090909 145.877003,15.6666667 C145.796067,16.4747475 145.715131,17.2828283 145.634194,18.010101 C143.44892,19.4646465 139.72586,19.4646465 137.621522,17.9292929 C135.840928,16.6363636 135.112503,14.1313131 135.759992,11.7070707 C136.407481,9.52525253 138.349947,7.98989899 140.616157,7.90909091 C143.206112,7.82828283 145.148578,8.95959596 145.877003,11.0606061 C146.362619,12.1111111 146.443555,13.1616162 146.200747,14.3737374 L146.200747,14.3737374 Z M143.529856,12.4343434 C143.44892,10.979798 142.639559,10.1717172 141.263646,10.0909091 C139.806796,10.010101 138.835563,10.8989899 138.511819,12.4343434 L143.529856,12.4343434 L143.529856,12.4343434 Z M123.781451,13.4848485 C123.781451,16.7171717 121.272432,19.0606061 117.954053,19.0606061 C114.635673,19.0606061 112.288527,16.7171717 112.207591,13.4848485 C112.207591,10.2525253 114.635673,7.82828283 117.954053,7.82828283 C121.353369,7.90909091 123.781451,10.1717172 123.781451,13.4848485 Z M120.948688,13.4848485 C120.948688,11.7878788 119.896519,10.4141414 118.439669,10.2525253 C116.820948,10.010101 115.445034,11.0606061 115.12129,12.7575758 C114.797546,14.6969697 115.687843,16.3939394 117.225628,16.7979798 L117.3875,16.7979798 C119.491839,17.040404 120.948688,15.5858586 120.948688,13.4848485 Z M72.2251641,7.90909091 C75.5435436,7.90909091 78.0525623,10.2525253 78.0525623,13.4848485 C78.0525623,16.7171717 75.5435436,19.1414141 72.2251641,19.0606061 C68.9067846,19.0606061 66.5596381,16.7171717 66.5596381,13.4848485 C66.5596381,10.2525253 68.9067846,7.90909091 72.2251641,7.90909091 Z M69.311465,13.6464646 C69.3924011,13.8888889 69.3924011,14.2929293 69.5542733,14.6969697 C69.9589537,15.989899 70.9301867,16.7171717 72.2251641,16.7171717 C73.5201415,16.7171717 74.5723106,15.989899 75.0579271,14.6969697 C75.3816715,13.8080808 75.3816715,12.9191919 75.0579271,12.030303 C74.6532467,10.8989899 73.6010776,10.0909091 72.3870363,10.0909091 C70.6064424,10.1717172 69.311465,11.5454545 69.311465,13.6464646 Z M131.227571,10.1717172 C129.366041,9.60606061 128.394808,9.92929293 127.990128,11.2222222 C128.313872,11.4646465 128.637616,11.7070707 129.042297,11.8686869 C129.689785,12.1111111 130.41821,12.2727273 131.146635,12.5151515 C131.632252,12.6767677 132.198804,12.8383838 132.684421,13.0808081 C134.707823,14.0505051 135.031567,16.4747475 133.250973,17.9292929 C132.765357,18.3333333 132.198804,18.6565657 131.551315,18.8181818 C129.770722,19.3030303 127.990128,19.0606061 126.29047,18.2525253 C125.723917,17.9292929 125.238301,17.5252525 125.076429,16.8787879 C124.83362,15.989899 125.238301,15.1010101 126.047662,14.8585859 C127.018895,14.6161616 127.747319,15.1818182 127.909192,16.1515152 C127.909192,16.3131313 127.909192,16.4747475 127.990128,16.6363636 C129.770722,17.3636364 131.227571,17.040404 131.713188,15.9090909 C131.551315,15.2626263 130.984763,15.1010101 130.41821,14.9393939 L127.990128,14.2121212 C127.666383,14.1313131 127.342639,13.969697 126.937959,13.8080808 C124.509876,12.7575758 125.076429,9.92929293 126.533278,8.7979798 C128.232936,7.50505051 131.470379,7.58585859 133.170037,8.95959596 C133.655654,9.36363636 133.979398,9.84848485 133.979398,10.4949495 C133.979398,11.3030303 133.574718,11.8686869 132.765357,11.9494949 C131.794124,12.030303 131.308507,11.6262626 131.146635,10.7373737 C131.227571,10.4949495 131.227571,10.3333333 131.227571,10.1717172 L131.227571,10.1717172 Z" id="compose"></path>
                    </g>
                </g>
            </g>
        </g>
    </g>
</svg>