<?xml version="1.0" encoding="UTF-8"?>
<svg width="118px" height="26px" viewBox="0 0 118 26" version="1.1" xmlns="http://www.w3.org/2000/svg" xmlns:xlink="http://www.w3.org/1999/xlink">
    <!-- Generator: Sketch 50.2 (55047) - http://www.bohemiancoding.com/sketch -->
    <title>logo--atlassian</title>
    <desc>Created with Sketch.</desc>
    <defs></defs>
    <g id="🖥-Homepage---Desktop" stroke="none" stroke-width="1" fill="none" fill-rule="evenodd" opacity="0.200000003">
        <g id="Idle-LandingPage" transform="translate(-317.000000, -4463.000000)" fill="#FFFFFF" fill-rule="nonzero">
            <g id="Features" transform="translate(0.000000, 3310.000000)">
                <g id="logo" transform="translate(317.000000, 1152.000000)">
                    <g id="logo--atlassian" transform="translate(0.000000, 1.000000)">
                        <path d="M34.3558392,7.22757697 C34.2807139,7.00267738 34.1304633,6.92771084 33.9050873,6.92771084 L29.5478187,6.92771084 C29.3224427,6.92771084 29.1721921,7.07764391 29.0970667,7.22757697 L23.6129183,24.5448461 C23.537793,24.6947791 23.6129183,24.8447122 23.6880436,24.9946452 C23.7631689,25.1445783 23.9134196,25.2195448 24.0636702,25.2195448 L27.0686831,25.2195448 C27.294059,25.2195448 27.4443097,25.0696118 27.519435,24.9196787 L31.2757011,12.1753681 C31.2757011,12.1753681 31.3508264,11.875502 31.726453,11.875502 C32.1020796,11.875502 32.1772049,12.1753681 32.1772049,12.1753681 L33.9050873,18.2476573 L31.5762023,18.2476573 C31.3508264,18.2476573 31.2005757,18.3975904 31.1254504,18.62249 L30.4493225,21.021419 C30.3741972,21.1713521 30.4493225,21.3212851 30.5244478,21.3962517 C30.5995732,21.5461847 30.7498238,21.5461847 30.9000745,21.5461847 L34.8817165,21.5461847 L35.933471,24.9196787 C36.0085963,25.1445783 36.1588469,25.2195448 36.3842229,25.2195448 L39.3892357,25.2195448 C39.5394864,25.2195448 39.689737,25.1445783 39.7648624,24.9946452 C39.8399877,24.8447122 39.915113,24.6947791 39.8399877,24.5448461 L34.3558392,7.22757697 L34.3558392,7.22757697 Z M47.3525198,22.5207497 C47.3525198,22.3708166 47.2773945,22.2958501 47.1271438,22.2208835 C47.0520185,22.145917 46.9017679,22.145917 46.7515172,22.145917 C46.3007653,22.2958501 45.774888,22.2958501 45.4743868,22.2958501 C44.7982589,22.2958501 44.4977576,21.9959839 44.4977576,21.3212851 L44.4977576,14.6492637 L47.2022691,14.6492637 C47.4276451,14.6492637 47.6530211,14.4243641 47.6530211,14.1994645 L47.6530211,12.1004016 C47.6530211,11.875502 47.4276451,11.6506024 47.2022691,11.6506024 L44.4977576,11.6506024 L44.4977576,8.4270415 C44.4977576,8.27710843 44.4226323,8.2021419 44.3475069,8.05220884 C44.2723816,7.9772423 44.122131,7.90227577 43.9718803,7.9772423 L41.1922435,8.35207497 C40.9668675,8.35207497 40.8166168,8.57697456 40.8166168,8.80187416 L40.8166168,11.6506024 L39.3141104,11.6506024 C39.0887345,11.6506024 38.8633585,11.875502 38.8633585,12.1004016 L38.8633585,14.1994645 C38.8633585,14.4243641 39.0887345,14.6492637 39.3141104,14.6492637 L40.8166168,14.6492637 L40.8166168,21.6961178 C40.8166168,24.0950469 42.0937473,25.3694779 44.6480082,25.3694779 C45.3992614,25.3694779 46.6012666,25.2195448 47.3525198,24.9196787 C47.5778958,24.8447122 47.7281464,24.6198126 47.6530211,24.394913 L47.3525198,22.5207497 L47.3525198,22.5207497 Z M52.4610416,6.55287818 L49.6814047,6.55287818 C49.4560288,6.55287818 49.2306528,6.77777778 49.2306528,7.00267738 L49.2306528,24.6947791 C49.2306528,24.9196787 49.4560288,25.1445783 49.6814047,25.1445783 L52.4610416,25.1445783 C52.6864176,25.1445783 52.9117936,24.9196787 52.9117936,24.6947791 L52.9117936,7.00267738 C52.9117936,6.77777778 52.6864176,6.55287818 52.4610416,6.55287818 L52.4610416,6.55287818 Z M59.5228218,11.4257028 C58.0954407,11.4257028 56.4426837,11.6506024 55.2406785,11.9504685 C55.0153026,12.0254351 54.8650519,12.2503347 54.9401772,12.4752343 L55.2406785,14.4993307 C55.2406785,14.6492637 55.3158038,14.7242303 55.4660545,14.7991968 C55.5411798,14.8741633 55.6914304,14.8741633 55.8416811,14.8741633 C56.9685609,14.6492637 58.170566,14.4993307 59.1471952,14.4993307 C61.1004536,14.4993307 61.4760802,14.9491299 61.4760802,16.2235609 L61.4760802,17.4230254 L58.5461926,17.4230254 C55.7665558,17.4230254 54.5645506,18.5475234 54.5645506,21.3212851 C54.5645506,23.9451138 55.9168064,25.4444444 58.170566,25.4444444 C59.5228218,25.4444444 60.7999523,25.0696118 61.9268321,24.394913 L62.0770827,24.8447122 C62.1522081,25.0696118 62.3024587,25.2195448 62.5278347,25.2195448 L64.7815943,25.2195448 C65.0069703,25.2195448 65.2323462,24.9946452 65.2323462,24.7697456 L65.2323462,16.373494 C65.0069703,12.7751004 63.5044638,11.4257028 59.5228218,11.4257028 L59.5228218,11.4257028 Z M61.3258295,20.1967871 L61.3258295,21.8460509 C60.8750776,22.0709505 60.0486991,22.4457831 59.0720699,22.4457831 C58.2456914,22.4457831 57.9451901,22.2208835 57.9451901,21.3212851 C57.9451901,20.4966533 58.0954407,20.1967871 59.1471952,20.1967871 L61.3258295,20.1967871 Z M71.9184998,16.8232932 C70.1906174,16.373494 70.1906174,16.373494 70.1906174,15.398929 C70.1906174,14.7991968 70.2657427,14.4993307 71.6931239,14.4993307 C72.669753,14.4993307 74.0971341,14.6492637 74.998638,14.7991968 C75.1488886,14.7991968 75.2240139,14.7991968 75.3742646,14.7242303 C75.4493899,14.6492637 75.5245152,14.4993307 75.5245152,14.4243641 L75.7498912,12.3253012 C75.7498912,12.1004016 75.5996406,11.875502 75.3742646,11.8005355 C74.3225101,11.5756359 72.8200037,11.4257028 71.6179985,11.4257028 C67.4109805,11.4257028 66.5094767,13 66.5094767,15.398929 C66.5094767,18.0227577 67.0353539,18.9223561 70.2657427,19.6720214 C72.3692517,20.1967871 72.3692517,20.5716198 72.3692517,21.1713521 C72.3692517,21.9959839 72.2941264,22.2958501 70.8667453,22.2958501 C69.7398655,22.2958501 68.462735,22.145917 67.2607299,21.8460509 C67.1104793,21.8460509 67.0353539,21.8460509 66.8851033,21.9210174 C66.809978,21.9959839 66.7348527,22.0709505 66.6597273,22.2208835 L66.2841007,24.1700134 C66.2089754,24.394913 66.359226,24.6198126 66.584602,24.6947791 C67.8617325,25.0696118 69.5896149,25.3694779 70.9418706,25.3694779 C74.998638,25.3694779 75.9001418,23.6452477 75.9001418,21.0963855 C76.0503925,18.3226238 75.5996406,17.7978581 71.9184998,16.8232932 L71.9184998,16.8232932 Z M82.5111701,16.8232932 C80.7832877,16.373494 80.7832877,16.373494 80.7832877,15.398929 C80.7832877,14.7991968 80.858413,14.4993307 82.2857941,14.4993307 C83.2624233,14.4993307 84.6898044,14.6492637 85.5913083,14.7991968 C85.7415589,14.7991968 85.8166842,14.7991968 85.9669349,14.7242303 C86.0420602,14.6492637 86.1171855,14.4993307 86.1171855,14.4243641 L86.3425615,12.3253012 C86.3425615,12.1004016 86.1923108,11.875502 85.9669349,11.8005355 C84.9151804,11.5756359 83.412674,11.4257028 82.2106688,11.4257028 C78.0036508,11.4257028 77.102147,13 77.102147,15.398929 C77.102147,18.0227577 77.6280242,18.9223561 80.858413,19.6720214 C82.961922,20.1967871 82.961922,20.5716198 82.961922,21.1713521 C82.961922,21.9959839 82.8867967,22.2958501 81.4594156,22.2958501 C80.3325358,22.2958501 79.0554053,22.145917 77.8534002,21.8460509 C77.7031495,21.8460509 77.6280242,21.8460509 77.4777736,21.9210174 C77.4026483,21.9959839 77.3275229,22.0709505 77.2523976,22.2208835 L76.876771,24.1700134 C76.8016457,24.394913 76.9518963,24.6198126 77.1772723,24.6947791 C78.4544028,25.0696118 80.1822851,25.3694779 81.5345409,25.3694779 C85.5913083,25.3694779 86.4928121,23.6452477 86.4928121,21.0963855 C86.7181881,18.3226238 86.1923108,17.7978581 82.5111701,16.8232932 L82.5111701,16.8232932 Z M91.4510833,6.55287818 L88.6714464,6.55287818 C88.4460705,6.55287818 88.2206945,6.77777778 88.2206945,7.00267738 L88.2206945,9.40160643 C88.2206945,9.62650602 88.4460705,9.85140562 88.6714464,9.85140562 L91.4510833,9.85140562 C91.6764593,9.85140562 91.9018352,9.62650602 91.9018352,9.40160643 L91.9018352,7.00267738 C91.9018352,6.77777778 91.6764593,6.55287818 91.4510833,6.55287818 L91.4510833,6.55287818 Z M91.4510833,11.7255689 L88.6714464,11.7255689 C88.4460705,11.7255689 88.2206945,11.9504685 88.2206945,12.1753681 L88.2206945,24.6947791 C88.2206945,24.9196787 88.4460705,25.1445783 88.6714464,25.1445783 L91.4510833,25.1445783 C91.6764593,25.1445783 91.9018352,24.9196787 91.9018352,24.6947791 L91.9018352,12.1753681 C91.9018352,11.875502 91.6764593,11.7255689 91.4510833,11.7255689 L91.4510833,11.7255689 Z M98.5879888,11.4257028 C97.1606077,11.4257028 95.5078507,11.6506024 94.3058455,11.9504685 C94.0804696,12.0254351 93.9302189,12.2503347 94.0053442,12.4752343 L94.3058455,14.4993307 C94.3058455,14.6492637 94.3809708,14.7242303 94.5312215,14.7991968 C94.6063468,14.8741633 94.7565975,14.8741633 94.9068481,14.8741633 C96.0337279,14.6492637 97.235733,14.4993307 98.2123622,14.4993307 C100.165621,14.4993307 100.541247,14.9491299 100.541247,16.2235609 L100.541247,17.4230254 L97.6113597,17.4230254 C94.8317228,17.4230254 93.6297176,18.5475234 93.6297176,21.3212851 C93.6297176,23.9451138 94.9819734,25.4444444 97.235733,25.4444444 C98.5879888,25.4444444 99.8651193,25.0696118 100.991999,24.394913 L101.14225,24.8447122 C101.217375,25.0696118 101.367626,25.2195448 101.593002,25.2195448 L103.846761,25.2195448 C104.072137,25.2195448 104.297513,24.9946452 104.297513,24.7697456 L104.297513,16.373494 C104.072137,12.7751004 102.569631,11.4257028 98.5879888,11.4257028 L98.5879888,11.4257028 Z M100.390997,20.1967871 L100.390997,21.8460509 C99.9402446,22.0709505 99.1138661,22.4457831 98.1372369,22.4457831 C97.3108584,22.4457831 97.0103571,22.2208835 97.0103571,21.3212851 C97.0103571,20.4966533 97.1606077,20.1967871 98.2123622,20.1967871 L100.390997,20.1967871 L100.390997,20.1967871 Z M114.289181,11.4257028 C112.8618,11.4257028 110.833416,11.9504685 109.180659,12.7001339 L108.955283,12.0254351 C108.880158,11.8005355 108.729907,11.7255689 108.504531,11.7255689 L106.476148,11.7255689 C106.250772,11.7255689 106.025396,11.9504685 106.025396,12.1753681 L106.025396,24.6947791 C106.025396,24.9196787 106.250772,25.1445783 106.476148,25.1445783 L109.255784,25.1445783 C109.48116,25.1445783 109.706536,24.9196787 109.706536,24.6947791 L109.706536,15.9986613 C110.683166,15.4738956 112.110547,14.9491299 112.936925,14.9491299 C113.537928,14.9491299 113.763304,15.1740295 113.763304,15.7737617 L113.763304,24.6198126 C113.763304,24.8447122 113.98868,25.0696118 114.214056,25.0696118 L116.993693,25.0696118 C117.219068,25.0696118 117.444444,24.8447122 117.444444,24.6198126 L117.444444,15.4738956 C117.444444,12.7751004 116.39269,11.4257028 114.289181,11.4257028 L114.289181,11.4257028 Z M26.9935578,0.780455154 C26.8433071,0.630522088 26.6930565,0.555555556 26.4676805,0.555555556 C26.3925552,0.555555556 26.2423045,0.555555556 26.1671792,0.630522088 C22.4109132,2.65461847 18.0536445,3.77911647 13.5461253,3.77911647 C9.03860599,3.77911647 4.68133736,2.72958501 0.925071306,0.630522088 C0.849945985,0.555555556 0.699695342,0.555555556 0.624570021,0.555555556 C0.399194058,0.555555556 0.248943415,0.630522088 0.0986927729,0.780455154 C-0.0515578694,1.00535475 -0.0515578694,1.38018742 0.248943415,1.68005355 C2.12707644,3.10441767 4.23058544,4.15394913 6.40921975,4.90361446 C8.66297939,5.65327979 11.0669897,6.10307898 13.5461253,6.10307898 C15.9501355,6.10307898 18.3541458,5.72824632 20.6830308,4.90361446 C22.8616651,4.15394913 24.9651741,3.02945114 26.8433071,1.68005355 C27.2189337,1.45515395 27.1438084,1.00535475 26.9935578,0.780455154 L26.9935578,0.780455154 Z M22.7114144,6.62784471 C22.6362891,6.55287818 22.4860385,6.55287818 22.4109132,6.55287818 L22.2606625,6.55287818 C21.208908,7.00267738 20.0820282,7.30254351 19.0302737,7.52744311 C18.8048977,7.60240964 18.6546471,7.7523427 18.5795218,7.90227577 C17.8282686,9.92637216 15.9501355,11.8005355 13.9968772,13.8246319 C13.9217519,13.8995984 13.7715012,13.9745649 13.6212506,13.9745649 C13.4709999,13.9745649 13.3207493,13.8995984 13.245624,13.8246319 C11.2923656,11.8005355 9.4142326,9.92637216 8.66297939,7.90227577 C8.58785407,7.7523427 8.43760342,7.60240964 8.21222746,7.52744311 C7.23559828,7.30254351 6.10871847,7.00267738 4.98183865,6.55287818 L4.83158801,6.55287818 C4.75646269,6.55287818 4.60621204,6.55287818 4.53108672,6.62784471 C4.38083608,6.70281124 4.30571076,6.92771084 4.30571076,7.07764391 C4.4559614,8.72690763 5.13208929,10.3761714 6.33409443,12.1004016 C7.46097425,13.6746988 8.88835535,15.1740295 10.3157365,16.6733601 C12.9451227,19.2971888 15.349133,21.8460509 15.5745089,24.7697456 C15.5745089,24.9946452 15.7998849,25.2195448 16.1003862,25.2195448 L19.1805244,25.2195448 C19.330775,25.2195448 19.4810256,25.1445783 19.556151,25.0696118 C19.6312763,24.9946452 19.7064016,24.8447122 19.7064016,24.6947791 C19.6312763,22.7456493 18.8800231,20.7965194 17.452642,18.772423 C17.1521407,18.3226238 16.8516394,17.9477912 16.4760128,17.497992 C16.3257621,17.3480589 16.4008875,17.1231593 16.4760128,17.0481928 L16.7765141,16.7483266 C18.2038952,15.3239625 19.6312763,13.8246319 20.7581561,12.1753681 C21.9601612,10.4511379 22.6362891,8.8768407 22.7865398,7.15261044 C22.9367904,6.92771084 22.7865398,6.77777778 22.7114144,6.62784471 L22.7114144,6.62784471 Z M10.3157365,18.9223561 C10.2406111,18.8473896 10.1654858,18.772423 9.94010985,18.772423 C9.71473388,18.772423 9.56448324,18.9223561 9.48935792,18.9973226 C8.21222746,20.9464525 7.53609957,22.8206158 7.46097425,24.6198126 C7.46097425,24.7697456 7.53609957,24.9196787 7.61122489,24.9946452 C7.68635021,25.0696118 7.83660085,25.1445783 7.9868515,25.1445783 L11.0669897,25.1445783 C11.3674909,25.1445783 11.5177416,24.9196787 11.5928669,24.6947791 C11.6679922,23.7951807 11.9684935,22.8955823 12.4192454,21.9959839 C12.5694961,21.6961178 12.4943708,21.3962517 12.3441201,21.2463186 C11.8933682,20.5716198 11.2172403,19.8219545 10.3157365,18.9223561 Z" id="atlassian"></path>
                    </g>
                </g>
            </g>
        </g>
    </g>
</svg>