<?xml version="1.0" encoding="UTF-8"?>
<svg width="108px" height="25px" viewBox="0 0 108 25" version="1.1" xmlns="http://www.w3.org/2000/svg" xmlns:xlink="http://www.w3.org/1999/xlink">
    <!-- Generator: Sketch 50.2 (55047) - http://www.bohemiancoding.com/sketch -->
    <title>logo--salesforce</title>
    <desc>Created with Sketch.</desc>
    <defs></defs>
    <g id="🖥-Homepage---Desktop" stroke="none" stroke-width="1" fill="none" fill-rule="evenodd" opacity="0.200000003">
        <g id="Idle-LandingPage" transform="translate(-1015.000000, -4464.000000)" fill="#FFFFFF">
            <g id="Features" transform="translate(0.000000, 3310.000000)">
                <g id="logo" transform="translate(317.000000, 1152.000000)">
                    <g id="logo--salesforce" transform="translate(698.400000, 2.000000)">
                        <path d="M0.48172043,17.502509 C0.401433692,17.7433692 0.48172043,17.8236559 0.562007168,17.8236559 C0.802867384,17.9842294 1.12401434,18.1448029 1.36487455,18.3053763 C2.81003584,19.1082437 4.17491039,19.2688172 5.62007168,19.2688172 C8.51039427,19.2688172 10.3569892,17.7433692 10.3569892,15.2544803 L10.3569892,15.1741935 C10.3569892,12.8458781 8.34982079,12.0430108 6.42293907,11.4007168 L6.18207885,11.3204301 C4.73691756,10.8387097 3.45232975,10.437276 3.45232975,9.47383513 L3.45232975,9.39354839 C3.45232975,8.590681 4.17491039,7.9483871 5.29892473,7.9483871 C6.58351254,7.9483871 8.02867384,8.34982079 8.9921147,8.91182796 C8.9921147,8.91182796 9.31326165,9.07240143 9.39354839,8.83154122 C9.47383513,8.67096774 9.95555556,7.38637993 9.95555556,7.22580645 C10.0358423,7.06523297 9.87526882,6.98494624 9.79498208,6.9046595 C8.67096774,6.26236559 7.14551971,5.78064516 5.62007168,5.78064516 L5.29892473,5.78064516 C2.64946237,5.78064516 0.802867384,7.38637993 0.802867384,9.71469534 L0.802867384,9.79498208 C0.802867384,12.2035842 2.89032258,13.0064516 4.8172043,13.5684588 L5.13835125,13.6487455 C6.50322581,14.0501792 7.78781362,14.4516129 7.78781362,15.4150538 L7.78781362,15.4953405 C7.78781362,16.3784946 6.98494624,17.1010753 5.70035842,17.1010753 C5.21863799,17.1010753 3.61290323,17.1010753 1.92688172,16.0573477 C1.68602151,15.8967742 1.60573477,15.8164875 1.44516129,15.7362007 C1.36487455,15.655914 1.12401434,15.5756272 1.0437276,15.8967742 L0.48172043,17.502509 L0.48172043,17.502509 Z M43.1942652,17.502509 C43.1139785,17.7433692 43.1942652,17.8236559 43.274552,17.8236559 C43.5154122,17.9842294 43.8365591,18.1448029 44.0774194,18.3053763 C45.5225806,19.1082437 46.8874552,19.2688172 48.3326165,19.2688172 C51.2229391,19.2688172 53.0695341,17.7433692 53.0695341,15.2544803 L53.0695341,15.1741935 C53.0695341,12.8458781 51.0623656,12.0430108 49.1354839,11.4007168 L48.8946237,11.3204301 C47.4494624,10.8387097 46.1648746,10.437276 46.1648746,9.47383513 L46.1648746,9.39354839 C46.1648746,8.590681 46.8874552,7.9483871 48.0114695,7.9483871 C49.2960573,7.9483871 50.7412186,8.34982079 51.7046595,8.91182796 C51.7046595,8.91182796 52.0258065,9.07240143 52.1060932,8.83154122 C52.1863799,8.67096774 52.6681004,7.38637993 52.6681004,7.22580645 C52.7483871,7.06523297 52.5878136,6.98494624 52.5075269,6.9046595 C51.3835125,6.26236559 49.8580645,5.78064516 48.3326165,5.78064516 L48.0114695,5.78064516 C45.3620072,5.78064516 43.5154122,7.38637993 43.5154122,9.71469534 L43.5154122,9.79498208 C43.5154122,12.2035842 45.6028674,13.0064516 47.5297491,13.5684588 L47.8508961,13.6487455 C49.2157706,14.0501792 50.5003584,14.4516129 50.5003584,15.4150538 L50.5003584,15.4953405 C50.5003584,16.3784946 49.697491,17.1010753 48.4129032,17.1010753 C47.9311828,17.1010753 46.325448,17.1010753 44.6394265,16.0573477 C44.3985663,15.8967742 44.3182796,15.8164875 44.1577061,15.7362007 C44.0774194,15.7362007 43.8365591,15.5756272 43.7562724,15.8967742 L43.1942652,17.502509 L43.1942652,17.502509 Z M74.7469534,9.95555556 C74.5060932,9.15268817 74.1046595,8.43010753 73.6229391,7.86810036 C73.1412186,7.30609319 72.4989247,6.82437276 71.7763441,6.42293907 C71.0537634,6.10179211 70.1706093,5.8609319 69.2071685,5.8609319 C68.2437276,5.8609319 67.3605735,6.02150538 66.5577061,6.42293907 C65.8351254,6.74408602 65.1928315,7.22580645 64.7111111,7.86810036 C64.2293907,8.43010753 63.827957,9.15268817 63.5870968,9.95555556 C63.3462366,10.7584229 63.2659498,11.6415771 63.2659498,12.6050179 C63.2659498,13.5684588 63.4265233,14.4516129 63.5870968,15.2544803 C63.827957,16.0573477 64.2293907,16.7799283 64.7111111,17.3419355 C65.1928315,17.9039427 65.8351254,18.3856631 66.5577061,18.7870968 C67.2802867,19.1082437 68.1634409,19.2688172 69.2071685,19.2688172 C70.1706093,19.2688172 71.0537634,19.1082437 71.7763441,18.7870968 C72.4989247,18.4659498 73.1412186,17.9842294 73.6229391,17.3419355 C74.1046595,16.7799283 74.5060932,16.0573477 74.7469534,15.2544803 C74.9878136,14.4516129 75.0681004,13.5684588 75.0681004,12.6050179 C75.0681004,11.6415771 74.9878136,10.7584229 74.7469534,9.95555556 L74.7469534,9.95555556 Z M72.3383513,12.6050179 C72.3383513,14.0501792 72.097491,15.0939068 71.5354839,15.8967742 C71.0537634,16.6996416 70.2508961,17.0207885 69.1268817,17.0207885 C68.0831541,17.0207885 67.2802867,16.6193548 66.7985663,15.8967742 C66.3168459,15.0939068 65.9956989,13.9698925 65.9956989,12.6050179 C65.9956989,11.1598566 66.2365591,10.116129 66.7985663,9.31326165 C67.2802867,8.51039427 68.0831541,8.18924731 69.1268817,8.18924731 C70.1706093,8.18924731 70.9734767,8.590681 71.5354839,9.31326165 C72.0172043,10.116129 72.3383513,11.1598566 72.3383513,12.6050179 L72.3383513,12.6050179 Z" id="Shape" fill-rule="nonzero"></path>
                        <path d="M94.7383513,16.6996416 C94.6580645,16.4587814 94.4172043,16.5390681 94.4172043,16.5390681 C94.0960573,16.6996416 93.6946237,16.7799283 93.29319,16.8602151 C92.8917563,16.9405018 92.4100358,16.9405018 91.9283154,16.9405018 C90.7240143,16.9405018 89.8408602,16.6193548 89.1182796,15.8967742 C88.4759857,15.1741935 88.074552,14.0501792 88.074552,12.6050179 C88.074552,11.2401434 88.3956989,10.1964158 89.0379928,9.39354839 C89.6,8.590681 90.5634409,8.18924731 91.7677419,8.18924731 C92.7311828,8.18924731 93.5340502,8.26953405 94.3369176,8.590681 C94.3369176,8.590681 94.497491,8.67096774 94.6580645,8.43010753 C94.8989247,7.86810036 95.0594982,7.38637993 95.2200717,6.74408602 C95.3003584,6.58351254 95.1397849,6.50322581 95.0594982,6.42293907 C94.7383513,6.26236559 94.0157706,6.10179211 93.4537634,6.02150538 C92.8917563,5.94121864 92.3297491,5.8609319 91.6071685,5.8609319 C90.5634409,5.8609319 89.6802867,6.02150538 88.8774194,6.42293907 C88.074552,6.74408602 87.4322581,7.22580645 86.9505376,7.86810036 C86.3885305,8.43010753 86.0673835,9.15268817 85.7462366,9.95555556 C85.5053763,10.7584229 85.3448029,11.6415771 85.3448029,12.6050179 C85.3448029,14.6121864 85.90681,16.2179211 86.9505376,17.4222222 C87.9942652,18.6265233 89.6802867,19.2688172 91.7677419,19.2688172 C93.0523297,19.2688172 94.2566308,19.027957 95.2200717,18.6265233 C95.2200717,18.6265233 95.3806452,18.5462366 95.3003584,18.3053763 L94.7383513,16.6996416 L94.7383513,16.6996416 Z M107.182796,9.55412186 C106.941935,8.75125448 106.460215,7.9483871 106.139068,7.62724014 C105.577061,7.06523297 105.095341,6.66379928 104.61362,6.42293907 C103.971326,6.10179211 103.168459,5.94121864 102.285305,5.94121864 C101.241577,5.94121864 100.358423,6.10179211 99.5555556,6.50322581 C98.8329749,6.82437276 98.190681,7.30609319 97.6286738,7.9483871 C97.1469534,8.590681 96.7455197,9.23297491 96.5046595,10.116129 C96.2637993,10.9189964 96.1032258,11.8021505 96.1032258,12.7655914 C96.1032258,13.7290323 96.2637993,14.6121864 96.5046595,15.4150538 C96.7455197,16.2179211 97.1469534,16.9405018 97.7089606,17.502509 C98.2709677,18.0645161 98.9132616,18.5462366 99.7964158,18.8673835 C100.599283,19.1885305 101.643011,19.3491039 102.767025,19.3491039 C105.175627,19.3491039 106.379928,18.7870968 106.941935,18.5462366 C107.022222,18.4659498 107.102509,18.3856631 107.022222,18.1448029 L106.460215,16.6193548 C106.379928,16.3784946 106.139068,16.4587814 106.139068,16.4587814 C105.577061,16.6996416 104.693907,17.1010753 102.767025,17.1010753 C101.482437,17.1010753 100.518996,16.6996416 99.9569892,16.1376344 C99.3146953,15.5756272 99.0738351,14.6121864 98.9935484,13.4078853 L107.263082,13.4078853 C107.263082,13.4078853 107.503943,13.4078853 107.503943,13.1670251 C107.423656,13.0064516 107.744803,11.4007168 107.182796,9.55412186 L107.182796,9.55412186 Z M98.9935484,11.2401434 C99.0738351,10.437276 99.3146953,9.79498208 99.6358423,9.31326165 C100.117563,8.51039427 100.92043,8.10896057 101.964158,8.10896057 C103.007885,8.10896057 103.730466,8.51039427 104.292473,9.31326165 C104.61362,9.79498208 104.774194,10.5175627 104.85448,11.2401434 L98.9935484,11.2401434 Z M41.1870968,9.55412186 C40.9462366,8.75125448 40.4645161,7.9483871 40.1433692,7.62724014 C39.581362,7.06523297 39.0996416,6.66379928 38.6179211,6.42293907 C37.9756272,6.10179211 37.1727599,5.94121864 36.2896057,5.94121864 C35.2458781,5.94121864 34.362724,6.10179211 33.5598566,6.50322581 C32.837276,6.82437276 32.1949821,7.30609319 31.6329749,7.9483871 C31.1512545,8.590681 30.7498208,9.23297491 30.5089606,10.116129 C30.2681004,10.9189964 30.1075269,11.8021505 30.1075269,12.7655914 C30.1075269,13.7290323 30.2681004,14.6121864 30.5089606,15.4150538 C30.7498208,16.2179211 31.1512545,16.9405018 31.7132616,17.502509 C32.2752688,18.0645161 32.9175627,18.5462366 33.8007168,18.8673835 C34.6035842,19.1885305 35.6473118,19.3491039 36.7713262,19.3491039 C39.1799283,19.3491039 40.3842294,18.7870968 40.9462366,18.5462366 C41.0265233,18.4659498 41.10681,18.3856631 41.0265233,18.1448029 L40.4645161,16.6193548 C40.3842294,16.3784946 40.1433692,16.4587814 40.1433692,16.4587814 C39.581362,16.6996416 38.6982079,17.1010753 36.7713262,17.1010753 C35.4867384,17.1010753 34.5232975,16.6996416 33.9612903,16.1376344 C33.3189964,15.5756272 33.0781362,14.6121864 32.9978495,13.4078853 L41.2673835,13.4078853 C41.2673835,13.4078853 41.5082437,13.4078853 41.5082437,13.1670251 C41.427957,13.0064516 41.7491039,11.4007168 41.1870968,9.55412186 L41.1870968,9.55412186 Z M32.9978495,11.2401434 C33.0781362,10.437276 33.3189964,9.79498208 33.6401434,9.31326165 C34.1218638,8.51039427 34.9247312,8.10896057 35.9684588,8.10896057 C37.0121864,8.10896057 37.734767,8.51039427 38.2967742,9.31326165 C38.6179211,9.79498208 38.7784946,10.5175627 38.8587814,11.2401434 L32.9978495,11.2401434 L32.9978495,11.2401434 Z" id="Shape"></path>
                        <path d="M18.4659498,10.8387097 L17.181362,10.8387097 C16.4587814,10.8387097 15.8164875,10.9189964 15.1741935,11.0795699 C14.5318996,11.2401434 13.9698925,11.4810036 13.488172,11.8824373 C13.0064516,12.2035842 12.6050179,12.6853047 12.283871,13.2473118 C11.962724,13.809319 11.8824373,14.4516129 11.8824373,15.1741935 C11.8824373,15.8967742 12.0430108,16.5390681 12.283871,17.0207885 C12.5247312,17.502509 12.9261649,17.9842294 13.3275986,18.3053763 C13.809319,18.6265233 14.3713262,18.8673835 15.0136201,19.027957 C15.655914,19.1885305 16.3784946,19.2688172 17.181362,19.2688172 C18.0645161,19.2688172 18.8673835,19.1885305 19.6702509,19.027957 C20.4731183,18.8673835 21.4365591,18.70681 21.7577061,18.6265233 C21.9985663,18.5462366 22.3197133,18.4659498 22.3197133,18.4659498 C22.5605735,18.3856631 22.4802867,18.2250896 22.4802867,18.2250896 L22.4802867,10.6781362 C22.4802867,8.9921147 22.078853,7.78781362 21.1956989,7.06523297 C20.3125448,6.34265233 19.027957,5.94121864 17.4222222,5.94121864 C16.7799283,5.94121864 15.8164875,6.02150538 15.1741935,6.18207885 C15.1741935,6.18207885 13.4078853,6.50322581 12.6050179,7.14551971 C12.6050179,7.14551971 12.4444444,7.22580645 12.5247312,7.46666667 L13.0867384,9.07240143 C13.1670251,9.31326165 13.3275986,9.23297491 13.3275986,9.23297491 C13.3275986,9.23297491 13.4078853,9.23297491 13.488172,9.15268817 C15.0939068,8.26953405 17.1010753,8.34982079 17.1010753,8.34982079 C17.9842294,8.34982079 18.70681,8.51039427 19.1082437,8.91182796 C19.5899642,9.23297491 19.7505376,9.79498208 19.7505376,10.8387097 L19.7505376,11.1598566 C19.1082437,10.9189964 18.4659498,10.8387097 18.4659498,10.8387097 M15.1741935,16.6193548 C14.8530466,16.3784946 14.7727599,16.2982079 14.6924731,16.1376344 C14.5318996,15.8967742 14.4516129,15.4953405 14.4516129,15.0939068 C14.4516129,14.3713262 14.6924731,13.809319 15.1741935,13.488172 C15.1741935,13.488172 15.8967742,12.8458781 17.5827957,12.9261649 C18.7870968,12.9261649 19.8308244,13.0867384 19.8308244,13.0867384 L19.8308244,16.8602151 C19.8308244,16.8602151 18.7870968,17.1010753 17.5827957,17.181362 C15.8967742,17.2616487 15.1741935,16.6193548 15.1741935,16.6193548" id="Shape" fill-rule="nonzero"></path>
                        <path d="M84.9433692,6.58351254 C85.0236559,6.42293907 84.8630824,6.34265233 84.7827957,6.26236559 C84.6222222,6.18207885 83.9799283,6.10179211 83.4179211,6.02150538 C82.3741935,5.94121864 81.8121864,6.10179211 81.3304659,6.34265233 C80.8487455,6.58351254 80.2867384,6.98494624 79.9655914,7.38637993 L79.9655914,6.34265233 C79.9655914,6.18207885 79.8853047,6.10179211 79.7247312,6.10179211 L77.637276,6.10179211 C77.4767025,6.10179211 77.3964158,6.18207885 77.3964158,6.34265233 L77.3964158,18.6265233 C77.3964158,18.7870968 77.4767025,18.8673835 77.637276,18.8673835 L79.8050179,18.8673835 C79.9655914,18.8673835 80.0458781,18.7870968 80.0458781,18.6265233 L80.0458781,12.5247312 C80.0458781,11.7218638 80.1261649,10.8387097 80.2867384,10.3569892 C80.4473118,9.87526882 80.688172,9.47383513 81.009319,9.15268817 C81.3304659,8.83154122 81.6516129,8.67096774 82.0530466,8.51039427 C82.4544803,8.43010753 82.855914,8.34982079 83.1770609,8.34982079 C83.5784946,8.34982079 84.0602151,8.43010753 84.0602151,8.43010753 C84.2207885,8.43010753 84.3010753,8.34982079 84.381362,8.18924731 C84.4616487,7.9483871 84.8630824,6.82437276 84.9433692,6.58351254 L84.9433692,6.58351254 Z M64.6308244,0.883154122 C64.3899642,0.802867384 64.1491039,0.722580645 63.827957,0.722580645 C63.50681,0.642293907 63.1053763,0.642293907 62.7039427,0.642293907 C61.1784946,0.642293907 60.0544803,1.0437276 59.2516129,1.92688172 C58.4487455,2.7297491 57.8867384,4.01433692 57.5655914,5.70035842 L57.4853047,6.26236559 L55.6387097,6.26236559 C55.6387097,6.26236559 55.3978495,6.26236559 55.3978495,6.50322581 L55.0767025,8.18924731 C55.0767025,8.34982079 55.1569892,8.43010753 55.3175627,8.43010753 L57.1641577,8.43010753 L55.3175627,18.70681 C55.1569892,19.5096774 54.9964158,20.2322581 54.8358423,20.7139785 C54.6752688,21.1956989 54.5146953,21.5971326 54.2738351,21.9182796 C54.0329749,22.1591398 53.8724014,22.4 53.5512545,22.4802867 C53.2301075,22.5605735 52.9089606,22.6408602 52.5878136,22.6408602 C52.4272401,22.6408602 52.1060932,22.6408602 51.9455197,22.5605735 C51.7849462,22.5605735 51.6243728,22.4802867 51.4637993,22.4 C51.4637993,22.4 51.2229391,22.3197133 51.1426523,22.5605735 C51.0623656,22.721147 50.5806452,24.0860215 50.5003584,24.246595 C50.4200717,24.4071685 50.5003584,24.5677419 50.6609319,24.5677419 C50.9017921,24.6480287 51.0623656,24.7283154 51.3835125,24.8086022 C51.865233,24.8888889 52.2666667,24.8888889 52.5878136,24.8888889 C53.3103943,24.8888889 54.0329749,24.8086022 54.5949821,24.5677419 C55.1569892,24.3268817 55.6387097,24.0057348 56.1204301,23.5240143 C56.6021505,22.9620072 56.9232975,22.4 57.1641577,21.6774194 C57.4853047,20.9548387 57.7261649,19.9913978 57.8867384,18.9476703 L59.7333333,8.43010753 L62.4630824,8.43010753 C62.4630824,8.43010753 62.7039427,8.43010753 62.7039427,8.18924731 L63.0250896,6.50322581 C63.0250896,6.34265233 62.9448029,6.26236559 62.7842294,6.26236559 L60.134767,6.26236559 C60.134767,6.18207885 60.2953405,5.29892473 60.5362007,4.41577061 C60.6967742,4.01433692 60.9376344,3.7734767 61.0982079,3.53261649 C61.2587814,3.29175627 61.4996416,3.21146953 61.8207885,3.1311828 C62.0616487,3.05089606 62.3827957,2.97060932 62.7039427,2.97060932 C62.9448029,2.97060932 63.1856631,2.97060932 63.3462366,3.05089606 C63.5870968,3.1311828 63.6673835,3.1311828 63.7476703,3.1311828 C63.9885305,3.21146953 64.0688172,3.1311828 64.0688172,2.97060932 L64.7111111,1.20430108 C64.7913978,1.0437276 64.6308244,0.96344086 64.6308244,0.883154122 L64.6308244,0.883154122 Z M27.7792115,18.70681 C27.7792115,18.8673835 27.6989247,18.9476703 27.5383513,18.9476703 L25.3706093,18.9476703 C25.2100358,18.9476703 25.1297491,18.8673835 25.1297491,18.70681 L25.1297491,1.12401434 C25.1297491,0.96344086 25.2100358,0.883154122 25.3706093,0.883154122 L27.5383513,0.883154122 C27.6989247,0.883154122 27.7792115,0.96344086 27.7792115,1.12401434 L27.7792115,18.70681 Z" id="Shape"></path>
                    </g>
                </g>
            </g>
        </g>
    </g>
</svg>