<?xml version="1.0" encoding="UTF-8"?>
<svg width="26px" height="21px" viewBox="0 0 26 21" version="1.1" xmlns="http://www.w3.org/2000/svg" xmlns:xlink="http://www.w3.org/1999/xlink">
    <!-- Generator: Sketch 50.2 (55047) - http://www.bohemiancoding.com/sketch -->
    <title>twitter-with-colors</title>
    <desc>Created with Sketch.</desc>
    <defs></defs>
    <g id="🖥-Homepage---Desktop" stroke="none" stroke-width="1" fill="none" fill-rule="evenodd">
        <g id="Idle-LandingPage" transform="translate(-731.000000, -5366.000000)">
            <g id="Footer" transform="translate(0.000000, 5204.000000)">
                <g id="Follow-us" transform="translate(732.000000, 80.000000)">
                    <g id="Twitter" transform="translate(0.000000, 80.000000)">
                        <g id="twitter-with-colors">
                            <rect id="placer" x="0" y="0" width="24" height="24"></rect>
                            <path d="M16.0360685,3.00421754 L16.0360685,3 L17.1614067,3 L17.5725879,3.08013319 C17.846716,3.13215649 18.0955888,3.20033296 18.3192065,3.28468368 C18.5428458,3.36903441 18.759257,3.46745061 18.96844,3.57991121 C19.1776447,3.69237181 19.3673724,3.80696226 19.5376231,3.9236404 C19.7064238,4.03892675 19.8579116,4.16123529 19.9920866,4.29056604 C20.1247899,4.42130966 20.3318305,4.45504994 20.613165,4.3917869 C20.8944995,4.32852386 21.1974752,4.2406515 21.522092,4.1281909 C21.8467087,4.0157303 22.1677331,3.88920422 22.4851217,3.74861265 C22.802532,3.60802109 22.9958738,3.51875694 23.0651253,3.48079911 C23.132927,3.4414495 23.1690027,3.42036182 23.1733309,3.41753607 L23.1776375,3.41120977 L23.1992786,3.40066593 L23.2209197,3.39012209 L23.2425609,3.37957825 L23.264202,3.36903441 L23.2685302,3.3627081 L23.2750225,3.35849057 L23.2815365,3.35427303 L23.2858431,3.34794673 L23.3074842,3.34162042 L23.3291253,3.33740289 L23.3248188,3.36903441 L23.3183048,3.40066593 L23.3074842,3.43229745 L23.2966637,3.46392897 L23.2858431,3.48501665 L23.2750225,3.50610433 L23.264202,3.53773585 C23.2569955,3.55882353 23.249789,3.58693341 23.2425609,3.62208657 C23.2353544,3.65723973 23.166817,3.79781021 23.0369702,4.04384018 C22.9071235,4.28987014 22.7448151,4.53940067 22.5500451,4.79245283 C22.355275,5.04550499 22.1807178,5.2366859 22.0263517,5.36603774 C21.8705356,5.49678135 21.7673724,5.58815427 21.716862,5.64017758 C21.6663733,5.69359267 21.605064,5.74279023 21.5329125,5.78779134 L21.4247069,5.85738069 L21.4030658,5.86792453 L21.3814247,5.87846837 L21.3771181,5.88479467 L21.3706041,5.88901221 L21.3641118,5.89322974 L21.3597836,5.89955605 L21.3381425,5.91009989 L21.3165014,5.92064373 L21.3121948,5.92697003 L21.3056808,5.93118757 L21.2991885,5.93540511 L21.2948602,5.94173141 L21.2905537,5.94805771 L21.2840397,5.95227525 L21.2775473,5.95649279 L21.2732191,5.96281909 L21.3814247,5.96281909 L21.987376,5.83629301 C22.3913508,5.75194229 22.7772768,5.65002553 23.1451758,5.53052164 L23.729486,5.34073252 L23.7944094,5.31964484 L23.8268711,5.309101 L23.8485122,5.29855716 L23.8701533,5.28801332 L23.8917944,5.27746948 L23.9134355,5.26692564 L23.9567178,5.26059933 L24,5.2563818 L24,5.29855716 L23.9891794,5.30277469 L23.9783589,5.309101 L23.9740523,5.3154273 L23.9675383,5.31964484 L23.961046,5.32386238 L23.9567178,5.33018868 L23.9524112,5.33651498 L23.9458972,5.34073252 L23.9394049,5.34495006 L23.9350766,5.35127636 L23.9307701,5.35760266 L23.9242561,5.3618202 L23.9134355,5.38290788 L23.902615,5.40399556 L23.8961226,5.4082131 C23.8932444,5.41243063 23.8016375,5.53191343 23.6212804,5.76670366 C23.440945,6.00288568 23.34356,6.12236848 23.3291253,6.12519423 C23.3147124,6.12941176 23.2944995,6.15049945 23.2685302,6.18845727 C23.2440108,6.22780688 23.091073,6.3845727 22.8097385,6.65871254 C22.528404,6.93285239 22.2528693,7.1767525 21.9830694,7.39045505 C21.7118413,7.60554939 21.5747665,7.86984129 21.5718882,8.18335183 C21.56756,8.4954495 21.5509612,8.84833074 21.522092,9.24195339 C21.4932444,9.63559711 21.4391416,10.0608513 21.3597836,10.517758 C21.2804472,10.9746648 21.157807,11.491313 20.9918846,12.0677026 C20.8259838,12.6440921 20.6239856,13.2064373 20.3859333,13.754717 C20.147881,14.3029967 19.8990081,14.7950355 19.6393147,15.2308546 C19.3796213,15.6666737 19.141569,16.0357081 18.9251578,16.3379578 C18.7087466,16.6402075 18.488743,16.9248912 18.2651037,17.1920089 C18.041486,17.4591265 17.7587232,17.7599845 17.4167935,18.0945616 C17.0734139,18.4277469 16.885872,18.6105139 16.8541244,18.6428413 C16.8209486,18.6737769 16.6795672,18.7890633 16.4299369,18.9886792 C16.1817998,19.1897081 15.9148783,19.390737 15.6292155,19.5917869 C15.3450027,19.791424 15.0838593,19.9580166 14.845807,20.0915649 C14.6077547,20.2251132 14.3206637,20.3776404 13.9844905,20.5491676 C13.649789,20.7220866 13.2876465,20.8823529 12.8981064,21.0299667 C12.5085663,21.1775805 12.097385,21.3146504 11.6645627,21.4411765 C11.2317403,21.5677026 10.8133526,21.6661188 10.4093778,21.736404 C10.0054247,21.8066892 9.54734716,21.8664517 9.03516682,21.9156493 L8.26690712,21.9894562 L8.26690712,22 L6.86023445,22 L6.86023445,21.9894562 L6.67628494,21.9789123 C6.55366637,21.9718901 6.45266727,21.9648468 6.37330929,21.9578246 C6.29397295,21.9508024 5.99458972,21.9121276 5.47520289,21.8418424 C4.95581605,21.7715572 4.54824887,21.7012508 4.25247971,21.6309656 C3.95673219,21.5606804 3.5166817,21.427111 2.93237151,21.2302997 C2.34806132,21.0334883 1.84815149,20.8345472 1.43264202,20.6335183 C1.01858251,20.4338812 0.758889089,20.3073552 0.653561767,20.2539401 C0.5496844,20.2019168 0.432822362,20.1372619 0.302975654,20.0599334 L0.108205591,19.9439512 L0.103899008,19.9376249 L0.0973850316,19.9334073 L0.0908926961,19.9291898 L0.0865644725,19.9228635 L0.0649233544,19.9123196 L0.0432822362,19.9017758 L0.0389756537,19.8954495 L0.0324616772,19.891232 L0.0259693417,19.8870144 L0.0216411181,19.8806881 L0.0173345356,19.8743618 L0.0108205591,19.8701443 L0,19.8701443 L0,19.8279689 L0.0216411181,19.8321865 L0.0432822362,19.8385128 L0.140667268,19.8490566 C0.205590622,19.8560788 0.382333634,19.8666226 0.670874662,19.8806881 C0.959437331,19.8947536 1.26600541,19.8947536 1.59062218,19.8806881 C1.91523895,19.8666226 2.24708386,19.8349911 2.58611362,19.7857936 C2.92516501,19.736596 3.3255257,19.6522453 3.78719567,19.5327414 C4.24888729,19.4132375 4.6730532,19.2712542 5.05971506,19.1067703 C5.44492696,18.9408946 5.71903336,18.8171731 5.88207755,18.7356271 C6.04365014,18.6554939 6.29035888,18.5064673 6.62218215,18.2885683 L7.11992786,17.9617092 L7.12425609,17.9553829 L7.13074842,17.9511654 L7.1372624,17.9469478 L7.14156898,17.9406215 L7.1458972,17.9342952 L7.15238954,17.9300777 L7.15890352,17.9258602 L7.1632101,17.9195339 L7.18485122,17.9132075 L7.20649234,17.90899 L7.21082056,17.8879023 L7.21731289,17.8668147 L7.22382687,17.8625971 L7.22813345,17.8562708 L7.05500451,17.845727 C6.93959243,17.8387048 6.82777277,17.8316615 6.71956718,17.8246393 C6.61136159,17.8176171 6.44184671,17.7859856 6.2110009,17.7297447 C5.98017674,17.6735039 5.73130388,17.5891532 5.46438233,17.4766926 C5.19748242,17.364232 4.937789,17.2306626 4.68530207,17.0760266 C4.43283679,16.9213907 4.2503156,16.7927347 4.13778179,16.6901221 C4.02669793,16.5888801 3.88241659,16.445505 3.70495942,16.2599334 C3.52895221,16.07297 3.37601443,15.8810511 3.24616772,15.6842397 C3.11632101,15.4874284 2.99225248,15.2603563 2.87396213,15.0031077 L2.69431921,14.6193119 L2.68349865,14.5876804 L2.67267809,14.5560488 L2.66618575,14.5349612 L2.66185753,14.5138735 L2.69431921,14.518091 L2.72678088,14.5244173 L2.96483318,14.5560488 C3.12354914,14.5771365 3.372422,14.5841587 3.71145176,14.5771365 C4.05050316,14.5701143 4.28494139,14.5560488 4.4147881,14.5349612 C4.54463481,14.5138735 4.62399279,14.499808 4.6528404,14.4927858 L4.69612263,14.482242 L4.75022543,14.4716981 L4.80432822,14.4611543 L4.80865645,14.454828 L4.81514878,14.4506104 L4.82166276,14.4463929 L4.82596934,14.4400666 L4.78268711,14.4295228 L4.73940487,14.4189789 L4.69612263,14.4084351 L4.6528404,14.3978912 L4.60955816,14.3873474 C4.58071055,14.3803252 4.53022182,14.3662597 4.45807033,14.345172 C4.38594049,14.3240844 4.19117042,14.2467558 3.87376014,14.1132075 C3.55637151,13.9796593 3.30388458,13.8496115 3.11632101,13.7230855 C2.92829249,13.5961926 2.74900776,13.457419 2.57962128,13.3076582 C2.41082056,13.1558269 2.22544274,12.9604073 2.02344454,12.7214206 C1.82146799,12.482434 1.64113255,12.2047725 1.48241659,11.8884573 C1.32372227,11.5721421 1.20469612,11.2698923 1.12533814,10.981687 C1.04629928,10.695177 0.994153225,10.4022587 0.969543733,10.1065483 L0.930568079,9.66370699 L0.952209197,9.66792453 L0.973850316,9.67425083 L0.995491434,9.68479467 L1.01713255,9.69533851 L1.03877367,9.70588235 L1.06041479,9.71642619 L1.39585212,9.86403996 C1.61949143,9.96245616 1.8972119,10.0468069 2.22903517,10.1170921 C2.56088007,10.1873774 2.75924256,10.2260522 2.82416592,10.2330744 L2.92155095,10.2436182 L3.11632101,10.2436182 L3.11201443,10.2372919 L3.10550045,10.2330744 L3.09900812,10.2288568 L3.09467989,10.2225305 L3.09037331,10.2162042 L3.08385933,10.2119867 L3.077367,10.2077691 L3.07303877,10.2014428 L3.05139766,10.190899 L3.02975654,10.1803552 L3.02544995,10.1740289 L3.01893598,10.1698113 L3.01244364,10.1655938 L3.00811542,10.1592675 L2.9864743,10.1487236 L2.96483318,10.1381798 L2.9605266,10.1318535 C2.95619838,10.1290277 2.89415329,10.0840477 2.77439134,9.99689234 C2.65607935,9.90832408 2.53201082,9.79375472 2.40216411,9.65316315 C2.2723174,9.51257159 2.14247069,9.36495782 2.01262399,9.21032186 C1.88253821,9.05533159 1.76667374,8.88950763 1.6663661,8.71476138 C1.56538864,8.53903774 1.45861136,8.31548724 1.34607755,8.04417314 C1.23499369,7.77425083 1.15059333,7.50221976 1.09287647,7.22807991 C1.03518124,6.95394007 1.00271957,6.68332186 0.995491434,6.41620422 C0.988284941,6.14908657 0.995491434,5.92064373 1.01713255,5.73085461 C1.03877367,5.54106548 1.08205591,5.32666704 1.14697926,5.08768036 C1.21190261,4.84869367 1.30569522,4.59564151 1.4283138,4.32852386 L1.6122633,3.92785794 L1.62308386,3.89622642 L1.63390442,3.86459489 L1.64041839,3.86037736 L1.64472498,3.85405105 L1.6490532,3.84772475 L1.65554554,3.84350721 L1.66205951,3.84772475 L1.6663661,3.85405105 L1.67069432,3.86037736 L1.67718665,3.86459489 L1.68370063,3.86881243 L1.68800721,3.87513873 L1.69233544,3.88146504 L1.69882777,3.88568257 L1.70964833,3.90677026 L1.72046889,3.92785794 L1.72698287,3.93207547 L1.73128945,3.93840178 L2.02344454,4.25471698 C2.21821461,4.46559378 2.44906041,4.70107991 2.71596032,4.96115427 C2.98288188,5.22122863 3.13075564,5.35618979 3.15960325,5.36603774 C3.1884725,5.37727747 3.2245266,5.40960488 3.26780884,5.46304107 C3.31109107,5.51506437 3.45537241,5.63948169 3.7006312,5.83629301 C3.94591163,6.03310433 4.26691434,6.26156826 4.66366096,6.52164262 C5.06042922,6.78171698 5.50045807,7.03829079 5.98376916,7.29134295 C6.46710189,7.54439512 6.98648873,7.77283796 7.54192967,7.97669256 C8.09739225,8.18054717 8.48693237,8.31409545 8.71055005,8.37735849 C8.93418936,8.44062153 9.31650135,8.52145061 9.85752931,8.61986681 C10.3985573,8.71828302 10.8061461,8.78154606 11.0802525,8.80965594 C11.3543805,8.83776582 11.5419441,8.85394007 11.6429216,8.8581576 L11.7944094,8.86237514 L11.7901028,8.83074362 L11.7835888,8.7991121 L11.7403066,8.53551609 C11.711459,8.35979245 11.6970243,8.11376249 11.6970243,7.79744728 C11.6970243,7.48113208 11.7222795,7.18942619 11.7727683,6.92230855 C11.8232786,6.6551909 11.8990225,6.3845727 12,6.11043285 C12.1009991,5.83629301 12.1998341,5.61626415 12.2964833,5.45038846 C12.3946041,5.28590455 12.5230009,5.0982242 12.6816952,4.88734739 C12.8404112,4.67647059 13.0460018,4.45857159 13.2984671,4.2336293 C13.550954,4.00868701 13.839495,3.80835405 14.1641118,3.63263041 C14.4887286,3.45690677 14.7881118,3.3233374 15.0622182,3.23196448 C15.3363463,3.14059156 15.5671921,3.08082908 15.754734,3.0527192 C15.9422976,3.02460932 16.0360685,3.00843507 16.0360685,3.00421754 Z" id="Shape" stroke="#5DA8DC" stroke-width="0.5" fill="#5DA8DC" fill-rule="nonzero"></path>
                        </g>
                    </g>
                </g>
            </g>
        </g>
    </g>
</svg>