<?xml version="1.0" encoding="UTF-8"?>
<svg width="91px" height="24px" viewBox="0 0 91 24" version="1.1" xmlns="http://www.w3.org/2000/svg" xmlns:xlink="http://www.w3.org/1999/xlink">
    <!-- Generator: Sketch 50.2 (55047) - http://www.bohemiancoding.com/sketch -->
    <title>logo</title>
    <desc>Created with Sketch.</desc>
    <defs></defs>
    <g id="Page-1" stroke="none" stroke-width="1" fill="none" fill-rule="evenodd">
        <g id="Group-23">
            <path d="M7.09305341,18.9242591 C10.9205661,18.9242591 14.0233783,15.8487324 14.0233783,12.054878 C14.0233783,8.26102365 10.9205661,5.18549699 7.09305341,5.18549699 C3.26554068,5.18549699 0.16272855,8.26102365 0.16272855,12.054878 C0.16272855,15.8487324 3.26554068,18.9242591 7.09305341,18.9242591 Z M7.09305341,0.278796239 C13.6545038,0.278796239 18.9736103,5.55112765 18.9736103,12.054878 C18.9736103,18.5586284 13.6545038,23.8309599 7.09305341,23.8309599 L7.09305341,0.278796239 Z" id="Combined-Shape" fill="#F7814A" fill-rule="nonzero"></path>
            <path d="M31.4052043,20.6817073 C29.1610795,20.6817073 27.4595312,20.1658537 26.300559,19.1341463 C25.1415866,18.102439 24.5621007,16.6207317 24.5621007,14.6890244 L24.5621007,4.04268293 L28.326915,4.04268293 L28.326915,14.7768293 C28.326915,15.6695123 28.5742117,16.3719513 29.0688048,16.8841463 C29.5633983,17.3963417 30.3421979,17.652439 31.4052043,17.652439 C32.3943906,17.652439 33.1399719,17.3853657 33.6419469,16.8512195 C34.1439219,16.3170733 34.3949098,15.6036586 34.3949098,14.7109756 L34.3949098,4.04268293 L38.18187,4.04268293 L38.18187,14.6890244 C38.18187,16.6060978 37.6060749,18.0841465 36.4544846,19.1231707 C35.3028944,20.162195 33.6198009,20.6817073 31.4052043,20.6817073 Z" id="Path" fill="#F7814A"></path>
            <path d="M43.8955294,10.4743902 L43.9619673,10.4743902 C44.3310715,9.77195122 44.8219739,9.24512195 45.434674,8.89390244 C46.0473789,8.54268293 46.7671228,8.36707317 47.5939058,8.36707317 C48.8931356,8.36707317 49.900777,8.75853614 50.6168302,9.54146341 C51.3328826,10.32439 51.6909096,11.3743902 51.6909096,12.6914634 L51.6909096,20.3743902 L48.2361388,20.3743902 L48.2361388,13.35 C48.2361388,12.7060973 48.070044,12.1902437 47.7378545,11.802439 C47.405665,11.4146344 46.914763,11.2207317 46.2651478,11.2207317 C45.586005,11.2207317 45.0397377,11.4621951 44.6263463,11.945122 C44.2129548,12.4280488 44.0062592,13.0426829 44.0062592,13.7890244 L44.0062592,20.3743902 L40.5293425,20.3743902 L40.5293425,8.69634146 L43.8955294,8.69634146 L43.8955294,10.4743902 Z" id="Path" fill="#F7814A"></path>
            <path d="M53.8833602,4.04268293 L57.4045689,4.04268293 L57.4045689,7.05 L53.8833602,7.05 L53.8833602,4.04268293 Z M57.3824229,8.69634146 L57.3824229,20.3743902 L53.9055062,20.3743902 L53.9055062,12.1732582 C53.9055062,10.2530101 55.4621748,8.69634146 57.3824229,8.69634146 Z M64.1812346,20.747561 C63.4135077,20.747561 62.7196008,20.604878 62.0995138,20.3195122 C61.4794267,20.0341463 60.9479235,19.6243905 60.5050042,19.0902439 C60.0620849,18.5560973 59.7225132,17.904878 59.4862897,17.1365854 C59.250066,16.3682927 59.1319543,15.5012195 59.1319543,14.5353659 C59.1319543,13.6426832 59.2537571,12.8195124 59.4973627,12.0658537 C59.7409684,11.3121949 60.0842308,10.6609756 60.5271502,10.1121951 C60.9700695,9.56341463 61.5052638,9.13536585 62.1327327,8.82804878 C62.7602017,8.52073171 63.4577996,8.36707317 64.2255266,8.36707317 C65.0375451,8.36707317 65.7240701,8.53902394 66.2851014,8.88292683 C66.8461328,9.22682904 67.3259619,9.70609756 67.7245893,10.3207317 L67.7688812,10.3207317 C67.739353,9.95487827 67.717207,9.5378051 67.7024433,9.0695122 C67.6876795,8.60121996 67.6802973,8.11829313 67.6802973,7.62073171 L67.6802973,4.04268293 L71.1572141,4.04268293 L71.1572141,20.3743902 L67.8131731,20.3743902 L67.8131731,18.6621951 L67.7688812,18.6621951 C67.4293095,19.3792684 66.9457897,19.9060977 66.3183204,20.2426829 C65.6908511,20.5792682 64.9784894,20.747561 64.1812346,20.747561 Z M65.1113652,17.9817073 C65.9529119,17.9817073 66.6099087,17.6634146 67.0823562,17.0268293 C67.5548037,16.3902439 67.7910272,15.5597562 67.7910272,14.5353659 C67.7910272,14.0231705 67.7356622,13.547561 67.6249324,13.1085366 C67.5142026,12.6695122 67.3481078,12.2926832 67.1266482,11.9780488 C66.9051885,11.6634144 66.6283639,11.4182927 66.2961744,11.2426829 C65.9639849,11.0670732 65.5764305,10.9792683 65.1335112,10.9792683 C64.3067282,10.9792683 63.6903323,11.3048783 63.284323,11.9560976 C62.8783137,12.6073168 62.6753089,13.4597561 62.6753089,14.5134146 C62.6753089,15.5670732 62.8783137,16.4085365 63.284323,17.0378049 C63.6903323,17.6670729 64.2993467,17.9817073 65.1113652,17.9817073 Z M73.5046865,4.04268293 L77.0037492,4.04268293 L77.0037492,20.3743902 L73.5046865,20.3743902 L73.5046865,4.04268293 Z M84.9984431,20.7256098 C84.0387843,20.7256098 83.175092,20.5682926 82.407365,20.2536585 C81.6396381,19.9390245 80.9863324,19.5036588 80.447447,18.947561 C79.9085616,18.3914632 79.4951704,17.7402439 79.2072729,16.9939024 C78.9193753,16.247561 78.7754265,15.4353659 78.7754265,14.5573171 C78.7754265,13.6792683 78.9230661,12.8634149 79.2183458,12.1097561 C79.5136253,11.3560886 79.9270168,10.7012104 80.45852,10.145122 C80.9900232,9.5890034 81.6248743,9.15363732 82.3630731,8.83902439 C83.1012719,8.52439069 83.920673,8.36707317 84.8212754,8.36707317 C85.6628221,8.36707317 86.4194757,8.49878049 87.0912369,8.76219512 C87.7630002,9.02560976 88.3572505,9.39146319 88.8739872,9.8597561 C89.5383662,10.5036588 90.0255775,11.3012193 90.335621,12.252439 C90.6456645,13.2036588 90.7933048,14.2573173 90.7785403,15.4134146 L82.1859054,15.4134146 C82.3040171,16.2914634 82.5992968,16.9792682 83.071744,17.4768293 C83.5441912,17.97439 84.2011883,18.2231707 85.042735,18.2231707 C85.589002,18.2231707 86.0356127,18.1243902 86.382566,17.9268293 C86.7295192,17.7292656 86.9989623,17.4475584 87.1908938,17.0817073 L90.5570807,17.0817073 C90.4094404,17.5939027 90.1769078,18.0731705 89.8594827,18.5195122 C89.542036,18.9658539 89.1507909,19.3536585 88.6857465,19.6829268 C88.2206812,20.0121951 87.678105,20.2682928 87.058018,20.4512195 C86.4379309,20.6341462 85.751406,20.7256098 84.9984431,20.7256098 Z M84.8212754,10.8036585 C84.0240206,10.8036585 83.4186976,11.0378047 83.0053061,11.5060976 C82.5919146,11.9743905 82.326163,12.6109758 82.2080513,13.4158537 L87.2351857,13.4158537 C87.17613,12.5963412 86.9325244,11.9560976 86.5043688,11.495122 C86.0762132,11.0341463 85.5151825,10.8036585 84.8212754,10.8036585 Z" id="Unidle" fill="#10121A"></path>
        </g>
    </g>
</svg>