<svg width="24" height="25" xmlns="http://www.w3.org/2000/svg"><g fill="none" fill-rule="evenodd"><path d="M0 .344h24v24H0z"/><path d="M0 12.343c0-3.312 1.172-6.14 3.515-8.484C5.86 1.516 8.687.344 12 .344c3.313 0 6.14 1.172 8.484 3.515 2.344 2.344 3.515 5.172 3.515 8.484 0 3.312-1.171 6.14-3.515 8.484-2.344 2.343-5.171 3.515-8.484 3.515-3.312 0-6.14-1.172-8.484-3.515C1.172 18.483 0 15.655 0 12.343zm1.312 0c0 2.937 1.047 5.453 3.14 7.546 2.094 2.094 4.61 3.14 7.547 3.14 2.938 0 5.453-1.046 7.547-3.14 2.093-2.093 3.14-4.609 3.14-7.546 0-2.937-1.047-5.453-3.14-7.546-2.094-2.094-4.61-3.14-7.547-3.14-2.937 0-5.453 1.046-7.546 3.14-2.094 2.093-3.14 4.609-3.14 7.546zm3.375 2.578c-.062-.063-.062-.125 0-.188a.507.507 0 0 1 .469-.14c.187.031.297.062.328.094.219.093.46.304.727.632.265.328.476.555.632.68.75.625 1.516.672 2.297.14.063-.218.164-.406.305-.562.14-.156.273-.265.398-.328a9.92 9.92 0 0 1 .656-.281c-1.03-.094-1.867-.274-2.507-.54-.64-.265-1.149-.6-1.524-1.007-.5-.562-.804-1.297-.914-2.203-.11-.906-.039-1.734.211-2.484.188-.469.453-.89.797-1.266-.25-.78-.203-1.671.14-2.671 1 .062 1.907.406 2.72 1.03 1.562-.405 3.187-.421 4.874-.046a8.809 8.809 0 0 1 1.008-.586c.453-.234 1.023-.367 1.71-.398.125.343.211.75.258 1.218.047.469.024.906-.07 1.313.719.75 1.094 1.75 1.125 3 0 1-.172 1.827-.516 2.484-.343.656-.953 1.203-1.828 1.64-.593.281-1.375.453-2.343.516.437.218.757.445.96.68.204.234.337.6.399 1.1v1.477l.047 1.43c.094.156.203.289.328.398.125.11.234.188.328.235.094.047.125.117.094.21-.031.094-.156.141-.375.141-.531 0-.953-.187-1.266-.562a1.073 1.073 0 0 1-.14-.563v-2.25c0-.25-.063-.43-.188-.539a.915.915 0 0 0-.375-.21v2.952c0 .532.063.875.188 1.032.125.156.203.312.234.468.031.032.008.055-.07.07-.078.016-.211-.007-.399-.07-.406-.093-.687-.304-.843-.632a2.422 2.422 0 0 1-.235-1.055v-2.906h-.609v2.906c0 .375-.078.734-.234 1.078-.22.438-.625.672-1.219.703-.094-.031-.14-.062-.14-.094.03-.03.124-.187.28-.468a2.723 2.723 0 0 0 .188-1.031v-2.953a.759.759 0 0 0-.351.21c-.11.11-.165.29-.165.54v2.25c0 .218-.046.406-.14.562-.281.375-.703.562-1.266.562-.218 0-.343-.046-.375-.14-.03-.063-.023-.117.024-.164s.117-.102.21-.164c.094-.063.157-.11.188-.141A.853.853 0 0 0 9 19.655c.094-.125.118-.453.07-.984-.046-.531-.054-.875-.023-1.031-.812.28-1.64.14-2.484-.422-.25-.25-.5-.61-.75-1.078-.187-.344-.562-.75-1.125-1.22z" fill="#FFF" fill-rule="nonzero"/></g></svg>
