<svg width="24" height="25" xmlns="http://www.w3.org/2000/svg"><g fill="none" fill-rule="evenodd"><path d="M0 .344h24v24H0z"/><path d="M2.108 13.043a1.975 1.975 0 0 1-1.953-1.458 2.085 2.085 0 0 1 1.339-2.544L18.397 3.34c.201-.059.409-.09.618-.091.914-.007 1.69.539 1.975 1.39l.025.083c.316 1.113-.47 2.106-1.41 2.425-.001 0-.173.058-16.81 5.778a2.174 2.174 0 0 1-.687.118zM4.925 21.412c-.898.007-1.655-.52-1.93-1.343a2.1 2.1 0 0 1 1.308-2.664l16.905-5.753c.218-.073.444-.111.67-.113.9-.007 1.692.547 1.97 1.378l.027.087c.163.575.067 1.22-.258 1.73-.242.38-1.005.714-1.005.714L5.643 21.289c-.231.079-.474.12-.718.124z" fill="#FFF" fill-rule="nonzero"/><path d="M18.997 21.449a2.076 2.076 0 0 1-1.987-1.424L11.368 3.153l-.028-.095A2.091 2.091 0 0 1 13.324.392a2.081 2.081 0 0 1 1.984 1.426l5.641 16.87.016.054c.317 1.118-.27 2.24-1.323 2.598-.208.07-.426.107-.645.109zM10.611 24.29a2.077 2.077 0 0 1-1.988-1.425L2.983 5.994a2.102 2.102 0 0 1 .107-1.598 2.08 2.08 0 0 1 1.845-1.16 2.076 2.076 0 0 1 1.987 1.423l5.64 16.872a2.102 2.102 0 0 1-.107 1.598 2.08 2.08 0 0 1-1.845 1.161h.001z" fill="#FFF" fill-rule="nonzero"/><path fill="#FFF" fill-rule="nonzero" d="M16.216 17.65l3.933-1.355-1.285-3.845-3.939 1.34 1.29 3.86zM7.843 20.532l3.933-1.354-1.295-3.875-3.938 1.34 1.3 3.889zM13.415 9.274l3.934-1.352-1.27-3.8-3.942 1.33zM5.041 12.153L8.975 10.8 7.69 6.952l-3.941 1.33 1.293 3.87z"/></g></svg>
